<?xml version="1.0" encoding="UTF-8" standalone="no"?>
<!-- Created with Inkscape (http://www.inkscape.org/) -->

<svg
   width="297mm"
   height="210mm"
   viewBox="0 0 1052.3622 744.09448"
   id="svg2"
   version="1.1"
   inkscape:version="1.1.1 (3bf5ae0d25, 2021-09-20)"
   sodipodi:docname="Cute-baby-seal_custom.svg"
   xmlns:inkscape="http://www.inkscape.org/namespaces/inkscape"
   xmlns:sodipodi="http://sodipodi.sourceforge.net/DTD/sodipodi-0.dtd"
   xmlns="http://www.w3.org/2000/svg"
   xmlns:svg="http://www.w3.org/2000/svg"
   xmlns:rdf="http://www.w3.org/1999/02/22-rdf-syntax-ns#"
   xmlns:cc="http://creativecommons.org/ns#"
   xmlns:dc="http://purl.org/dc/elements/1.1/">
  <defs
     id="defs4">
    <inkscape:path-effect
       effect="skeletal"
       id="path-effect4047"
       is_visible="true"
       pattern="M 0,5 C 0,2.24 2.24,0 5,0 7.76,0 10,2.24 10,5 10,7.76 7.76,10 5,10 2.24,10 0,7.76 0,5 Z"
       copytype="single_stretched"
       prop_scale="1"
       scale_y_rel="false"
       spacing="0"
       normal_offset="0"
       tang_offset="0"
       prop_units="false"
       vertical_pattern="false"
       fuse_tolerance="0" />
    <inkscape:path-effect
       effect="skeletal"
       id="path-effect4029"
       is_visible="true"
       pattern="m 496.73194,511.96919 c 0,-2.76 2.24,-5 5,-5 2.76,0 5,2.24 5,5 0,2.76 -2.24,5 -5,5 -2.76,0 -5,-2.24 -5,-5 z"
       copytype="single_stretched"
       prop_scale="1"
       scale_y_rel="false"
       spacing="0"
       normal_offset="0"
       tang_offset="0"
       prop_units="false"
       vertical_pattern="false"
       fuse_tolerance="0" />
    <inkscape:path-effect
       effect="skeletal"
       id="path-effect4034"
       is_visible="true"
       pattern="m 2.0203051,0.95938985 c 0,-2.76000005 2.24,-5.00000005 5,-5.00000005 2.76,0 4.9999999,2.24 4.9999999,5.00000005 0,2.75999995 -2.2399999,4.99999995 -4.9999999,4.99999995 -2.76,0 -5,-2.24 -5,-4.99999995 z"
       copytype="single_stretched"
       prop_scale="1"
       scale_y_rel="false"
       spacing="0"
       normal_offset="0"
       tang_offset="0"
       prop_units="false"
       vertical_pattern="false"
       fuse_tolerance="0" />
    <inkscape:path-effect
       effect="skeletal"
       id="path-effect4022"
       is_visible="true"
       pattern="M 0,5 C 0,2.24 2.24,0 5,0 7.76,0 10,2.24 10,5 10,7.76 7.76,10 5,10 2.24,10 0,7.76 0,5 Z"
       copytype="single_stretched"
       prop_scale="1"
       scale_y_rel="false"
       spacing="0"
       normal_offset="0"
       tang_offset="0"
       prop_units="false"
       vertical_pattern="false"
       fuse_tolerance="0" />
    <inkscape:path-effect
       fuse_tolerance="0"
       vertical_pattern="false"
       prop_units="false"
       tang_offset="0"
       normal_offset="0"
       spacing="0"
       scale_y_rel="false"
       prop_scale="1"
       copytype="single_stretched"
       pattern="m 459.35629,523.08087 c 0,-2.76 2.24,-5 5,-5 2.76,0 5,2.24 5,5 0,2.76 -2.24,5 -5,5 -2.76,0 -5,-2.24 -5,-5 z"
       is_visible="true"
       id="path-effect4073"
       effect="skeletal" />
    <inkscape:path-effect
       fuse_tolerance="0"
       vertical_pattern="false"
       prop_units="false"
       tang_offset="0"
       normal_offset="0"
       spacing="0"
       scale_y_rel="false"
       prop_scale="1"
       copytype="single_stretched"
       pattern="m 398.74714,527.62656 c 0,-2.76 2.24,-5 5,-5 2.76,0 5,2.24 5,5 0,2.76 -2.24,5 -5,5 -2.76,0 -5,-2.24 -5,-5 z"
       is_visible="true"
       id="path-effect4069"
       effect="skeletal" />
    <inkscape:path-effect
       effect="skeletal"
       id="path-effect4055"
       is_visible="true"
       pattern="m 496.73194,511.96919 c 0,-2.76 2.24,-5 5,-5 2.76,0 5,2.24 5,5 0,2.76 -2.24,5 -5,5 -2.76,0 -5,-2.24 -5,-5 z"
       copytype="single_stretched"
       prop_scale="1"
       scale_y_rel="false"
       spacing="0"
       normal_offset="0"
       tang_offset="0"
       prop_units="false"
       vertical_pattern="false"
       fuse_tolerance="0" />
    <inkscape:path-effect
       effect="skeletal"
       id="path-effect4051"
       is_visible="true"
       pattern="m 496.73194,511.96919 c 0,-2.76 2.24,-5 5,-5 2.76,0 5,2.24 5,5 0,2.76 -2.24,5 -5,5 -2.76,0 -5,-2.24 -5,-5 z"
       copytype="single_stretched"
       prop_scale="1"
       scale_y_rel="false"
       spacing="0"
       normal_offset="0"
       tang_offset="0"
       prop_units="false"
       vertical_pattern="false"
       fuse_tolerance="0" />
    <inkscape:path-effect
       effect="skeletal"
       id="path-effect4043"
       is_visible="true"
       pattern="m 496.73194,511.96919 c 0,-2.76 2.24,-5 5,-5 2.76,0 5,2.24 5,5 0,2.76 -2.24,5 -5,5 -2.76,0 -5,-2.24 -5,-5 z"
       copytype="single_stretched"
       prop_scale="1"
       scale_y_rel="false"
       spacing="0"
       normal_offset="0"
       tang_offset="0"
       prop_units="false"
       vertical_pattern="false"
       fuse_tolerance="0" />
    <inkscape:path-effect
       effect="skeletal"
       id="path-effect4039"
       is_visible="true"
       pattern="m 496.73194,511.96919 c 0,-2.76 2.24,-5 5,-5 2.76,0 5,2.24 5,5 0,2.76 -2.24,5 -5,5 -2.76,0 -5,-2.24 -5,-5 z"
       copytype="single_stretched"
       prop_scale="1"
       scale_y_rel="false"
       spacing="0"
       normal_offset="0"
       tang_offset="0"
       prop_units="false"
       vertical_pattern="false"
       fuse_tolerance="0" />
    <inkscape:path-effect
       effect="skeletal"
       id="path-effect4033"
       is_visible="true"
       pattern="m 496.73194,511.96919 c 0,-2.76 2.24,-5 5,-5 2.76,0 5,2.24 5,5 0,2.76 -2.24,5 -5,5 -2.76,0 -5,-2.24 -5,-5 z"
       copytype="single_stretched"
       prop_scale="1"
       scale_y_rel="false"
       spacing="0"
       normal_offset="0"
       tang_offset="0"
       prop_units="false"
       vertical_pattern="false"
       fuse_tolerance="0" />
    <inkscape:path-effect
       effect="skeletal"
       id="path-effect4025"
       is_visible="true"
       pattern="m 496.73194,511.96919 c 0,-2.76 2.24,-5 5,-5 2.76,0 5,2.24 5,5 0,2.76 -2.24,5 -5,5 -2.76,0 -5,-2.24 -5,-5 z"
       copytype="single_stretched"
       prop_scale="1"
       scale_y_rel="false"
       spacing="0"
       normal_offset="0"
       tang_offset="0"
       prop_units="false"
       vertical_pattern="false"
       fuse_tolerance="0" />
    <inkscape:path-effect
       effect="skeletal"
       id="path-effect4021"
       is_visible="true"
       pattern="m 496.73194,511.96919 c 0,-2.76 2.24,-5 5,-5 2.76,0 5,2.24 5,5 0,2.76 -2.24,5 -5,5 -2.76,0 -5,-2.24 -5,-5 z"
       copytype="single_stretched"
       prop_scale="1"
       scale_y_rel="false"
       spacing="0"
       normal_offset="0"
       tang_offset="0"
       prop_units="false"
       vertical_pattern="false"
       fuse_tolerance="0" />
    <inkscape:path-effect
       effect="skeletal"
       id="path-effect4017"
       is_visible="true"
       pattern="m 496.73194,511.96919 c 0,-2.76 2.24,-5 5,-5 2.76,0 5,2.24 5,5 0,2.76 -2.24,5 -5,5 -2.76,0 -5,-2.24 -5,-5 z"
       copytype="single_stretched"
       prop_scale="1"
       scale_y_rel="false"
       spacing="0"
       normal_offset="0"
       tang_offset="0"
       prop_units="false"
       vertical_pattern="false"
       fuse_tolerance="0" />
    <inkscape:path-effect
       effect="skeletal"
       id="path-effect4013"
       is_visible="true"
       pattern="m 0,313.26772 c 0,-2.76 2.24,-5 5,-5 2.76,0 5,2.24 5,5 0,2.76 -2.24,5 -5,5 -2.76,0 -5,-2.24 -5,-5 z"
       copytype="single_stretched"
       prop_scale="1"
       scale_y_rel="false"
       spacing="0"
       normal_offset="0"
       tang_offset="0"
       prop_units="false"
       vertical_pattern="false"
       fuse_tolerance="0" />
    <inkscape:path-effect
       effect="skeletal"
       id="path-effect3972"
       is_visible="true"
       pattern="m 0,313.26772 c 0,-2.76 2.24,-5 5,-5 2.76,0 5,2.24 5,5 0,2.76 -2.24,5 -5,5 -2.76,0 -5,-2.24 -5,-5 z"
       copytype="single_stretched"
       prop_scale="1"
       scale_y_rel="false"
       spacing="0"
       normal_offset="0"
       tang_offset="0"
       prop_units="false"
       vertical_pattern="false"
       fuse_tolerance="0" />
    <inkscape:path-effect
       effect="skeletal"
       id="path-effect3968"
       is_visible="true"
       pattern="m 496.73194,511.96919 c 0,-2.76 2.24,-5 5,-5 2.76,0 5,2.24 5,5 0,2.76 -2.24,5 -5,5 -2.76,0 -5,-2.24 -5,-5 z"
       copytype="single_stretched"
       prop_scale="1"
       scale_y_rel="false"
       spacing="0"
       normal_offset="0"
       tang_offset="0"
       prop_units="false"
       vertical_pattern="false"
       fuse_tolerance="0" />
    <inkscape:path-effect
       effect="skeletal"
       id="path-effect3960"
       is_visible="true"
       pattern="m 496.73194,511.96919 c 0,-2.76 2.24,-5 5,-5 2.76,0 5,2.24 5,5 0,2.76 -2.24,5 -5,5 -2.76,0 -5,-2.24 -5,-5 z"
       copytype="single_stretched"
       prop_scale="1"
       scale_y_rel="false"
       spacing="0"
       normal_offset="0"
       tang_offset="0"
       prop_units="false"
       vertical_pattern="false"
       fuse_tolerance="0" />
    <inkscape:path-effect
       effect="skeletal"
       id="path-effect3935"
       is_visible="true"
       pattern="m 496.73194,511.96919 c 0,-2.76 2.24,-5 5,-5 2.76,0 5,2.24 5,5 0,2.76 -2.24,5 -5,5 -2.76,0 -5,-2.24 -5,-5 z"
       copytype="single_stretched"
       prop_scale="1"
       scale_y_rel="false"
       spacing="0"
       normal_offset="0"
       tang_offset="0"
       prop_units="false"
       vertical_pattern="false"
       fuse_tolerance="0" />
    <inkscape:path-effect
       effect="skeletal"
       id="path-effect4044"
       is_visible="true"
       pattern="m 496.73194,511.96919 c 0,-2.76 2.24,-5 5,-5 2.76,0 5,2.24 5,5 0,2.76 -2.24,5 -5,5 -2.76,0 -5,-2.24 -5,-5 z"
       copytype="single_stretched"
       prop_scale="1"
       scale_y_rel="false"
       spacing="0"
       normal_offset="0"
       tang_offset="0"
       prop_units="false"
       vertical_pattern="false"
       fuse_tolerance="0" />
    <inkscape:path-effect
       effect="skeletal"
       id="path-effect4040"
       is_visible="true"
       pattern="m 0,313.26772 c 0,-2.76 2.24,-5 5,-5 2.76,0 5,2.24 5,5 0,2.76 -2.24,5 -5,5 -2.76,0 -5,-2.24 -5,-5 z"
       copytype="single_stretched"
       prop_scale="1"
       scale_y_rel="false"
       spacing="0"
       normal_offset="0"
       tang_offset="0"
       prop_units="false"
       vertical_pattern="false"
       fuse_tolerance="0" />
    <inkscape:path-effect
       effect="skeletal"
       id="path-effect4032"
       is_visible="true"
       pattern="m 496.73194,511.96919 c 0,-2.76 2.24,-5 5,-5 2.76,0 5,2.24 5,5 0,2.76 -2.24,5 -5,5 -2.76,0 -5,-2.24 -5,-5 z"
       copytype="single_stretched"
       prop_scale="1"
       scale_y_rel="false"
       spacing="0"
       normal_offset="0"
       tang_offset="0"
       prop_units="false"
       vertical_pattern="false"
       fuse_tolerance="0" />
    <inkscape:path-effect
       effect="skeletal"
       id="path-effect4028"
       is_visible="true"
       pattern="m 496.73194,510.09419 c 0,-2.76 2.24,-5 5,-5 2.76,0 5,2.24 5,5 0,2.76 -2.24,5 -5,5 -2.76,0 -5,-2.24 -5,-5 z"
       copytype="single_stretched"
       prop_scale="1"
       scale_y_rel="false"
       spacing="0"
       normal_offset="0"
       tang_offset="0"
       prop_units="false"
       vertical_pattern="false"
       fuse_tolerance="0" />
    <inkscape:path-effect
       effect="skeletal"
       id="path-effect4024"
       is_visible="true"
       pattern="m 496.73194,510.09419 c 0,-2.76 2.24,-5 5,-5 2.76,0 5,2.24 5,5 0,2.76 -2.24,5 -5,5 -2.76,0 -5,-2.24 -5,-5 z"
       copytype="single_stretched"
       prop_scale="1"
       scale_y_rel="false"
       spacing="0"
       normal_offset="0"
       tang_offset="0"
       prop_units="false"
       vertical_pattern="false"
       fuse_tolerance="0" />
    <inkscape:path-effect
       effect="skeletal"
       id="path-effect4020"
       is_visible="true"
       pattern="m 0,313.26772 c 0,-2.76 2.24,-5 5,-5 2.76,0 5,2.24 5,5 0,2.76 -2.24,5 -5,5 -2.76,0 -5,-2.24 -5,-5 z"
       copytype="single_stretched"
       prop_scale="1"
       scale_y_rel="false"
       spacing="0"
       normal_offset="0"
       tang_offset="0"
       prop_units="false"
       vertical_pattern="false"
       fuse_tolerance="0" />
    <inkscape:path-effect
       effect="skeletal"
       id="path-effect4014"
       is_visible="true"
       pattern="m 0,313.26772 c 0,-2.76 2.24,-5 5,-5 2.76,0 5,2.24 5,5 0,2.76 -2.24,5 -5,5 -2.76,0 -5,-2.24 -5,-5 z"
       copytype="single_stretched"
       prop_scale="1"
       scale_y_rel="false"
       spacing="0"
       normal_offset="0"
       tang_offset="0"
       prop_units="false"
       vertical_pattern="false"
       fuse_tolerance="0" />
    <inkscape:path-effect
       effect="skeletal"
       id="path-effect4010"
       is_visible="true"
       pattern="m 6.7857148,214.33914 c 0,-2.76 2.24,-5 5.0000002,-5 2.76,0 5,2.24 5,5 0,2.76 -2.24,5 -5,5 -2.7600002,0 -5.0000002,-2.24 -5.0000002,-5 z"
       copytype="single_stretched"
       prop_scale="1"
       scale_y_rel="false"
       spacing="0"
       normal_offset="0"
       tang_offset="0"
       prop_units="false"
       vertical_pattern="false"
       fuse_tolerance="0" />
    <inkscape:path-effect
       effect="skeletal"
       id="path-effect4002"
       is_visible="true"
       pattern="m 496.73194,510.09419 c 0,-2.76 2.24,-5 5,-5 2.76,0 5,2.24 5,5 0,2.76 -2.24,5 -5,5 -2.76,0 -5,-2.24 -5,-5 z"
       copytype="single_stretched"
       prop_scale="1"
       scale_y_rel="false"
       spacing="0"
       normal_offset="0"
       tang_offset="0"
       prop_units="false"
       vertical_pattern="false"
       fuse_tolerance="0" />
    <inkscape:path-effect
       effect="skeletal"
       id="path-effect3998"
       is_visible="true"
       pattern="m 496.73194,510.09419 c 0,-2.76 2.24,-5 5,-5 2.76,0 5,2.24 5,5 0,2.76 -2.24,5 -5,5 -2.76,0 -5,-2.24 -5,-5 z"
       copytype="single_stretched"
       prop_scale="1"
       scale_y_rel="false"
       spacing="0"
       normal_offset="0"
       tang_offset="0"
       prop_units="false"
       vertical_pattern="false"
       fuse_tolerance="0" />
    <inkscape:path-effect
       effect="skeletal"
       id="path-effect3994"
       is_visible="true"
       pattern="m 496.73194,510.09419 c 0,-2.76 2.24,-5 5,-5 2.76,0 5,2.24 5,5 0,2.76 -2.24,5 -5,5 -2.76,0 -5,-2.24 -5,-5 z"
       copytype="single_stretched"
       prop_scale="1"
       scale_y_rel="false"
       spacing="0"
       normal_offset="0"
       tang_offset="0"
       prop_units="false"
       vertical_pattern="false"
       fuse_tolerance="0" />
    <inkscape:path-effect
       effect="skeletal"
       id="path-effect3990"
       is_visible="true"
       pattern="m 496.73194,511.96919 c 0,-2.76 2.24,-5 5,-5 2.76,0 5,2.24 5,5 0,2.76 -2.24,5 -5,5 -2.76,0 -5,-2.24 -5,-5 z"
       copytype="single_stretched"
       prop_scale="1"
       scale_y_rel="false"
       spacing="0"
       normal_offset="0"
       tang_offset="0"
       prop_units="false"
       vertical_pattern="false"
       fuse_tolerance="0" />
    <inkscape:path-effect
       effect="skeletal"
       id="path-effect3986"
       is_visible="true"
       pattern="m 496.73194,511.96919 c 0,-2.76 2.24,-5 5,-5 2.76,0 5,2.24 5,5 0,2.76 -2.24,5 -5,5 -2.76,0 -5,-2.24 -5,-5 z"
       copytype="single_stretched"
       prop_scale="1"
       scale_y_rel="false"
       spacing="0"
       normal_offset="0"
       tang_offset="0"
       prop_units="false"
       vertical_pattern="false"
       fuse_tolerance="0" />
    <inkscape:path-effect
       effect="skeletal"
       id="path-effect3978"
       is_visible="true"
       pattern="m 496.73194,511.96919 c 0,-2.76 2.24,-5 5,-5 2.76,0 5,2.24 5,5 0,2.76 -2.24,5 -5,5 -2.76,0 -5,-2.24 -5,-5 z"
       copytype="single_stretched"
       prop_scale="1"
       scale_y_rel="false"
       spacing="0"
       normal_offset="0"
       tang_offset="0"
       prop_units="false"
       vertical_pattern="false"
       fuse_tolerance="0" />
    <inkscape:path-effect
       effect="skeletal"
       id="path-effect3974"
       is_visible="true"
       pattern="m 496.73194,511.96919 c 0,-2.76 2.24,-5 5,-5 2.76,0 5,2.24 5,5 0,2.76 -2.24,5 -5,5 -2.76,0 -5,-2.24 -5,-5 z"
       copytype="single_stretched"
       prop_scale="1"
       scale_y_rel="false"
       spacing="0"
       normal_offset="0"
       tang_offset="0"
       prop_units="false"
       vertical_pattern="false"
       fuse_tolerance="0" />
    <inkscape:path-effect
       effect="skeletal"
       id="path-effect3966"
       is_visible="true"
       pattern="m 496.73194,511.96919 c 0,-2.76 2.24,-5 5,-5 2.76,0 5,2.24 5,5 0,2.76 -2.24,5 -5,5 -2.76,0 -5,-2.24 -5,-5 z"
       copytype="single_stretched"
       prop_scale="1"
       scale_y_rel="false"
       spacing="0"
       normal_offset="0"
       tang_offset="0"
       prop_units="false"
       vertical_pattern="false"
       fuse_tolerance="0" />
    <inkscape:path-effect
       effect="skeletal"
       id="path-effect3962"
       is_visible="true"
       pattern="m 496.73194,511.96919 c 0,-2.76 2.24,-5 5,-5 2.76,0 5,2.24 5,5 0,2.76 -2.24,5 -5,5 -2.76,0 -5,-2.24 -5,-5 z"
       copytype="single_stretched"
       prop_scale="1"
       scale_y_rel="false"
       spacing="0"
       normal_offset="0"
       tang_offset="0"
       prop_units="false"
       vertical_pattern="false"
       fuse_tolerance="0" />
    <inkscape:path-effect
       effect="skeletal"
       id="path-effect3958"
       is_visible="true"
       pattern="m 496.73194,511.96919 c 0,-2.76 2.24,-5 5,-5 2.76,0 5,2.24 5,5 0,2.76 -2.24,5 -5,5 -2.76,0 -5,-2.24 -5,-5 z"
       copytype="single_stretched"
       prop_scale="1"
       scale_y_rel="false"
       spacing="0"
       normal_offset="0"
       tang_offset="0"
       prop_units="false"
       vertical_pattern="false"
       fuse_tolerance="0" />
    <inkscape:path-effect
       effect="skeletal"
       id="path-effect3954"
       is_visible="true"
       pattern="m 496.73194,511.96919 c 0,-2.76 2.24,-5 5,-5 2.76,0 5,2.24 5,5 0,2.76 -2.24,5 -5,5 -2.76,0 -5,-2.24 -5,-5 z"
       copytype="single_stretched"
       prop_scale="1"
       scale_y_rel="false"
       spacing="0"
       normal_offset="0"
       tang_offset="0"
       prop_units="false"
       vertical_pattern="false"
       fuse_tolerance="0" />
    <inkscape:path-effect
       effect="skeletal"
       id="path-effect3950"
       is_visible="true"
       pattern="m 496.73194,511.96919 c 0,-2.76 2.24,-5 5,-5 2.76,0 5,2.24 5,5 0,2.76 -2.24,5 -5,5 -2.76,0 -5,-2.24 -5,-5 z"
       copytype="single_stretched"
       prop_scale="1"
       scale_y_rel="false"
       spacing="0"
       normal_offset="0"
       tang_offset="0"
       prop_units="false"
       vertical_pattern="false"
       fuse_tolerance="0" />
    <inkscape:path-effect
       effect="skeletal"
       id="path-effect3946"
       is_visible="true"
       pattern="m 496.73194,511.96919 c 0,-2.76 2.24,-5 5,-5 2.76,0 5,2.24 5,5 0,2.76 -2.24,5 -5,5 -2.76,0 -5,-2.24 -5,-5 z"
       copytype="single_stretched"
       prop_scale="1"
       scale_y_rel="false"
       spacing="0"
       normal_offset="0"
       tang_offset="0"
       prop_units="false"
       vertical_pattern="false"
       fuse_tolerance="0" />
    <inkscape:path-effect
       effect="skeletal"
       id="path-effect3942"
       is_visible="true"
       pattern="m 496.73194,511.96919 c 0,-2.76 2.24,-5 5,-5 2.76,0 5,2.24 5,5 0,2.76 -2.24,5 -5,5 -2.76,0 -5,-2.24 -5,-5 z"
       copytype="single_stretched"
       prop_scale="1"
       scale_y_rel="false"
       spacing="0"
       normal_offset="0"
       tang_offset="0"
       prop_units="false"
       vertical_pattern="false"
       fuse_tolerance="0" />
    <inkscape:path-effect
       effect="skeletal"
       id="path-effect3938"
       is_visible="true"
       pattern="m 496.73194,511.96919 c 0,-2.76 2.24,-5 5,-5 2.76,0 5,2.24 5,5 0,2.76 -2.24,5 -5,5 -2.76,0 -5,-2.24 -5,-5 z"
       copytype="single_stretched"
       prop_scale="1"
       scale_y_rel="false"
       spacing="0"
       normal_offset="0"
       tang_offset="0"
       prop_units="false"
       vertical_pattern="false"
       fuse_tolerance="0" />
    <inkscape:path-effect
       effect="skeletal"
       id="path-effect3934"
       is_visible="true"
       pattern="m 496.73194,511.96919 c 0,-2.76 2.24,-5 5,-5 2.76,0 5,2.24 5,5 0,2.76 -2.24,5 -5,5 -2.76,0 -5,-2.24 -5,-5 z"
       copytype="single_stretched"
       prop_scale="1"
       scale_y_rel="false"
       spacing="0"
       normal_offset="0"
       tang_offset="0"
       prop_units="false"
       vertical_pattern="false"
       fuse_tolerance="0" />
    <inkscape:path-effect
       effect="skeletal"
       id="path-effect3926"
       is_visible="true"
       pattern="m 496.73194,511.96919 c 0,-2.76 2.24,-5 5,-5 2.76,0 5,2.24 5,5 0,2.76 -2.24,5 -5,5 -2.76,0 -5,-2.24 -5,-5 z"
       copytype="single_stretched"
       prop_scale="1"
       scale_y_rel="false"
       spacing="0"
       normal_offset="0"
       tang_offset="0"
       prop_units="false"
       vertical_pattern="false"
       fuse_tolerance="0" />
    <inkscape:path-effect
       effect="skeletal"
       id="path-effect3922"
       is_visible="true"
       pattern="m 496.73194,511.96919 c 0,-2.76 2.24,-5 5,-5 2.76,0 5,2.24 5,5 0,2.76 -2.24,5 -5,5 -2.76,0 -5,-2.24 -5,-5 z"
       copytype="single_stretched"
       prop_scale="1"
       scale_y_rel="false"
       spacing="0"
       normal_offset="0"
       tang_offset="0"
       prop_units="false"
       vertical_pattern="false"
       fuse_tolerance="0" />
    <inkscape:path-effect
       effect="skeletal"
       id="path-effect3918"
       is_visible="true"
       pattern="m 0,313.26772 c 0,-2.76 2.24,-5 5,-5 2.76,0 5,2.24 5,5 0,2.76 -2.24,5 -5,5 -2.76,0 -5,-2.24 -5,-5 z"
       copytype="single_stretched"
       prop_scale="1"
       scale_y_rel="false"
       spacing="0"
       normal_offset="0"
       tang_offset="0"
       prop_units="false"
       vertical_pattern="false"
       fuse_tolerance="0" />
    <inkscape:path-effect
       effect="skeletal"
       id="path-effect3896"
       is_visible="true"
       pattern="m 0,313.26772 c 0,-2.76 2.24,-5 5,-5 2.76,0 5,2.24 5,5 0,2.76 -2.24,5 -5,5 -2.76,0 -5,-2.24 -5,-5 z"
       copytype="single_stretched"
       prop_scale="1"
       scale_y_rel="false"
       spacing="0"
       normal_offset="0"
       tang_offset="0"
       prop_units="false"
       vertical_pattern="false"
       fuse_tolerance="0" />
    <inkscape:path-effect
       effect="skeletal"
       id="path-effect3892"
       is_visible="true"
       pattern="m 496.73194,511.96919 c 0,-2.76 2.24,-5 5,-5 2.76,0 5,2.24 5,5 0,2.76 -2.24,5 -5,5 -2.76,0 -5,-2.24 -5,-5 z"
       copytype="single_stretched"
       prop_scale="1"
       scale_y_rel="false"
       spacing="0"
       normal_offset="0"
       tang_offset="0"
       prop_units="false"
       vertical_pattern="false"
       fuse_tolerance="0" />
    <inkscape:path-effect
       effect="skeletal"
       id="path-effect3888"
       is_visible="true"
       pattern="m 496.73194,511.96919 c 0,-2.76 2.24,-5 5,-5 2.76,0 5,2.24 5,5 0,2.76 -2.24,5 -5,5 -2.76,0 -5,-2.24 -5,-5 z"
       copytype="single_stretched"
       prop_scale="1"
       scale_y_rel="false"
       spacing="0"
       normal_offset="0"
       tang_offset="0"
       prop_units="false"
       vertical_pattern="false"
       fuse_tolerance="0" />
    <inkscape:path-effect
       effect="skeletal"
       id="path-effect3884"
       is_visible="true"
       pattern="m 0,313.26772 c 0,-2.76 2.24,-5 5,-5 2.76,0 5,2.24 5,5 0,2.76 -2.24,5 -5,5 -2.76,0 -5,-2.24 -5,-5 z"
       copytype="single_stretched"
       prop_scale="1"
       scale_y_rel="false"
       spacing="0"
       normal_offset="0"
       tang_offset="0"
       prop_units="false"
       vertical_pattern="false"
       fuse_tolerance="0" />
    <inkscape:path-effect
       effect="skeletal"
       id="path-effect3876"
       is_visible="true"
       pattern="m 495.72178,510.95903 c 0,-2.76 2.24,-5 5,-5 2.76,0 5,2.24 5,5 0,2.76 -2.24,5 -5,5 -2.76,0 -5,-2.24 -5,-5 z"
       copytype="single_stretched"
       prop_scale="1"
       scale_y_rel="false"
       spacing="0"
       normal_offset="0"
       tang_offset="0"
       prop_units="false"
       vertical_pattern="false"
       fuse_tolerance="0" />
    <inkscape:path-effect
       fuse_tolerance="0"
       vertical_pattern="false"
       prop_units="false"
       tang_offset="0"
       normal_offset="0"
       spacing="0"
       scale_y_rel="false"
       prop_scale="1"
       copytype="single_stretched"
       pattern="m 568.57143,307.55344 c 0,-2.76 2.24,-5 5,-5 2.76,0 5,2.24 5,5 0,2.76 -2.24,5 -5,5 -2.76,0 -5,-2.24 -5,-5 z"
       is_visible="true"
       id="path-effect4195"
       effect="skeletal" />
    <inkscape:path-effect
       fuse_tolerance="0"
       vertical_pattern="false"
       prop_units="false"
       tang_offset="0"
       normal_offset="0"
       spacing="0"
       scale_y_rel="false"
       prop_scale="1"
       copytype="single_stretched"
       pattern="m 570.30337,431.25489 c 0,-2.76 2.24,-5 5,-5 2.76,0 5,2.24 5,5 0,2.76 -2.24,5 -5,5 -2.76,0 -5,-2.24 -5,-5 z"
       is_visible="true"
       id="path-effect4191"
       effect="skeletal" />
    <inkscape:path-effect
       fuse_tolerance="0"
       vertical_pattern="false"
       prop_units="false"
       tang_offset="0"
       normal_offset="0"
       spacing="0"
       scale_y_rel="false"
       prop_scale="1"
       copytype="single_stretched"
       pattern="m 253.57143,288.26772 c 0,-2.76 2.24,-5 5,-5 2.76,0 5,2.24 5,5 0,2.76 -2.24,5 -5,5 -2.76,0 -5,-2.24 -5,-5 z"
       is_visible="true"
       id="path-effect4187"
       effect="skeletal" />
    <inkscape:path-effect
       fuse_tolerance="0"
       vertical_pattern="false"
       prop_units="false"
       tang_offset="0"
       normal_offset="0"
       spacing="0"
       scale_y_rel="false"
       prop_scale="1"
       copytype="single_stretched"
       pattern="m 331.96743,293.35183 c 0,-2.76 2.24,-5 5,-5 2.76,0 5,2.24 5,5 0,2.76 -2.24,5 -5,5 -2.76,0 -5,-2.24 -5,-5 z"
       is_visible="true"
       id="path-effect4183"
       effect="skeletal" />
    <inkscape:path-effect
       effect="skeletal"
       id="path-effect4179"
       is_visible="true"
       pattern="m 0,313.26772 c 0,-2.76 2.24,-5 5,-5 2.76,0 5,2.24 5,5 0,2.76 -2.24,5 -5,5 -2.76,0 -5,-2.24 -5,-5 z"
       copytype="single_stretched"
       prop_scale="1"
       scale_y_rel="false"
       spacing="0"
       normal_offset="0"
       tang_offset="0"
       prop_units="false"
       vertical_pattern="false"
       fuse_tolerance="0" />
    <inkscape:path-effect
       effect="skeletal"
       id="path-effect4175"
       is_visible="true"
       pattern="m 0,313.26772 c 0,-2.76 2.24,-5 5,-5 2.76,0 5,2.24 5,5 0,2.76 -2.24,5 -5,5 -2.76,0 -5,-2.24 -5,-5 z"
       copytype="single_stretched"
       prop_scale="1"
       scale_y_rel="false"
       spacing="0"
       normal_offset="0"
       tang_offset="0"
       prop_units="false"
       vertical_pattern="false"
       fuse_tolerance="0" />
    <inkscape:path-effect
       effect="skeletal"
       id="path-effect4171"
       is_visible="true"
       pattern="m 496.73194,511.96919 c 0,-2.76 2.24,-5 5,-5 2.76,0 5,2.24 5,5 0,2.76 -2.24,5 -5,5 -2.76,0 -5,-2.24 -5,-5 z"
       copytype="single_stretched"
       prop_scale="1"
       scale_y_rel="false"
       spacing="0"
       normal_offset="0"
       tang_offset="0"
       prop_units="false"
       vertical_pattern="false"
       fuse_tolerance="0" />
    <inkscape:path-effect
       effect="skeletal"
       id="path-effect4167"
       is_visible="true"
       pattern="m -4.2857143,317.55343 c 0,-2.76 2.24,-5 5.00000001,-5 2.75999999,0 4.99999999,2.24 4.99999999,5 0,2.76 -2.24,5 -4.99999999,5 -2.76000001,0 -5.00000001,-2.24 -5.00000001,-5 z"
       copytype="single_stretched"
       prop_scale="1"
       scale_y_rel="false"
       spacing="0"
       normal_offset="0"
       tang_offset="0"
       prop_units="false"
       vertical_pattern="false"
       fuse_tolerance="0" />
    <inkscape:path-effect
       effect="skeletal"
       id="path-effect4163"
       is_visible="true"
       pattern="m 0,313.26772 c 0,-2.76 2.24,-5 5,-5 2.76,0 5,2.24 5,5 0,2.76 -2.24,5 -5,5 -2.76,0 -5,-2.24 -5,-5 z"
       copytype="single_stretched"
       prop_scale="1"
       scale_y_rel="false"
       spacing="0"
       normal_offset="0"
       tang_offset="0"
       prop_units="false"
       vertical_pattern="false"
       fuse_tolerance="0" />
    <inkscape:path-effect
       fuse_tolerance="0"
       vertical_pattern="false"
       prop_units="false"
       tang_offset="0"
       normal_offset="0"
       spacing="0"
       scale_y_rel="false"
       prop_scale="1"
       copytype="single_stretched"
       pattern="m 284.18419,240.3511 c 0,-2.76 2.24,-5 5,-5 2.76,0 5,2.24 5,5 0,2.76 -2.24,5 -5,5 -2.76,0 -5,-2.24 -5,-5 z"
       is_visible="true"
       id="path-effect4157"
       effect="skeletal" />
    <inkscape:path-effect
       effect="skeletal"
       id="path-effect4194"
       is_visible="true"
       pattern="m 496.73194,511.96919 c 0,-2.76 2.24,-5 5,-5 2.76,0 5,2.24 5,5 0,2.76 -2.24,5 -5,5 -2.76,0 -5,-2.24 -5,-5 z"
       copytype="single_stretched"
       prop_scale="1"
       scale_y_rel="false"
       spacing="0"
       normal_offset="0"
       tang_offset="0"
       prop_units="false"
       vertical_pattern="false"
       fuse_tolerance="0" />
    <inkscape:path-effect
       effect="skeletal"
       id="path-effect4190"
       is_visible="true"
       pattern="m 0,313.26772 c 0,-2.76 2.24,-5 5,-5 2.76,0 5,2.24 5,5 0,2.76 -2.24,5 -5,5 -2.76,0 -5,-2.24 -5,-5 z"
       copytype="single_stretched"
       prop_scale="1"
       scale_y_rel="false"
       spacing="0"
       normal_offset="0"
       tang_offset="0"
       prop_units="false"
       vertical_pattern="false"
       fuse_tolerance="0" />
    <inkscape:path-effect
       effect="skeletal"
       id="path-effect4186"
       is_visible="true"
       pattern="m 496.73194,511.96919 c 0,-2.76 2.24,-5 5,-5 2.76,0 5,2.24 5,5 0,2.76 -2.24,5 -5,5 -2.76,0 -5,-2.24 -5,-5 z"
       copytype="single_stretched"
       prop_scale="1"
       scale_y_rel="false"
       spacing="0"
       normal_offset="0"
       tang_offset="0"
       prop_units="false"
       vertical_pattern="false"
       fuse_tolerance="0" />
    <inkscape:path-effect
       effect="skeletal"
       id="path-effect4182"
       is_visible="true"
       pattern="m 0,313.26772 c 0,-2.76 2.24,-5 5,-5 2.76,0 5,2.24 5,5 0,2.76 -2.24,5 -5,5 -2.76,0 -5,-2.24 -5,-5 z"
       copytype="single_stretched"
       prop_scale="1"
       scale_y_rel="false"
       spacing="0"
       normal_offset="0"
       tang_offset="0"
       prop_units="false"
       vertical_pattern="false"
       fuse_tolerance="0" />
    <inkscape:path-effect
       effect="skeletal"
       id="path-effect4178"
       is_visible="true"
       pattern="m 496.73194,511.96919 c 0,-2.76 2.24,-5 5,-5 2.76,0 5,2.24 5,5 0,2.76 -2.24,5 -5,5 -2.76,0 -5,-2.24 -5,-5 z"
       copytype="single_stretched"
       prop_scale="1"
       scale_y_rel="false"
       spacing="0"
       normal_offset="0"
       tang_offset="0"
       prop_units="false"
       vertical_pattern="false"
       fuse_tolerance="0" />
    <inkscape:path-effect
       effect="skeletal"
       id="path-effect4174"
       is_visible="true"
       pattern="m 496.73194,511.96919 c 0,-2.76 2.24,-5 5,-5 2.76,0 5,2.24 5,5 0,2.76 -2.24,5 -5,5 -2.76,0 -5,-2.24 -5,-5 z"
       copytype="single_stretched"
       prop_scale="1"
       scale_y_rel="false"
       spacing="0"
       normal_offset="0"
       tang_offset="0"
       prop_units="false"
       vertical_pattern="false"
       fuse_tolerance="0" />
    <inkscape:path-effect
       effect="skeletal"
       id="path-effect4170"
       is_visible="true"
       pattern="m 496.73194,511.96919 c 0,-2.76 2.24,-5 5,-5 2.76,0 5,2.24 5,5 0,2.76 -2.24,5 -5,5 -2.76,0 -5,-2.24 -5,-5 z"
       copytype="single_stretched"
       prop_scale="1"
       scale_y_rel="false"
       spacing="0"
       normal_offset="0"
       tang_offset="0"
       prop_units="false"
       vertical_pattern="false"
       fuse_tolerance="0" />
    <inkscape:path-effect
       effect="skeletal"
       id="path-effect4162"
       is_visible="true"
       pattern="m 496.73194,511.96919 c 0,-2.76 2.24,-5 5,-5 2.76,0 5,2.24 5,5 0,2.76 -2.24,5 -5,5 -2.76,0 -5,-2.24 -5,-5 z"
       copytype="single_stretched"
       prop_scale="1"
       scale_y_rel="false"
       spacing="0"
       normal_offset="0"
       tang_offset="0"
       prop_units="false"
       vertical_pattern="false"
       fuse_tolerance="0" />
    <inkscape:path-effect
       effect="skeletal"
       id="path-effect4158"
       is_visible="true"
       pattern="m 496.73194,511.96919 c 0,-2.76 2.24,-5 5,-5 2.76,0 5,2.24 5,5 0,2.76 -2.24,5 -5,5 -2.76,0 -5,-2.24 -5,-5 z"
       copytype="single_stretched"
       prop_scale="1"
       scale_y_rel="false"
       spacing="0"
       normal_offset="0"
       tang_offset="0"
       prop_units="false"
       vertical_pattern="false"
       fuse_tolerance="0" />
    <inkscape:path-effect
       effect="skeletal"
       id="path-effect4154"
       is_visible="true"
       pattern="m 496.73194,511.96919 c 0,-2.76 2.24,-5 5,-5 2.76,0 5,2.24 5,5 0,2.76 -2.24,5 -5,5 -2.76,0 -5,-2.24 -5,-5 z"
       copytype="single_stretched"
       prop_scale="1"
       scale_y_rel="false"
       spacing="0"
       normal_offset="0"
       tang_offset="0"
       prop_units="false"
       vertical_pattern="false"
       fuse_tolerance="0" />
    <inkscape:path-effect
       effect="skeletal"
       id="path-effect4150"
       is_visible="true"
       pattern="m 496.73194,511.96919 c 0,-2.76 2.24,-5 5,-5 2.76,0 5,2.24 5,5 0,2.76 -2.24,5 -5,5 -2.76,0 -5,-2.24 -5,-5 z"
       copytype="single_stretched"
       prop_scale="1"
       scale_y_rel="false"
       spacing="0"
       normal_offset="0"
       tang_offset="0"
       prop_units="false"
       vertical_pattern="false"
       fuse_tolerance="0" />
    <inkscape:path-effect
       effect="skeletal"
       id="path-effect3896-3"
       is_visible="true"
       pattern="m 0,313.26772 c 0,-2.76 2.24,-5 5,-5 2.76,0 5,2.24 5,5 0,2.76 -2.24,5 -5,5 -2.76,0 -5,-2.24 -5,-5 z"
       copytype="single_stretched"
       prop_scale="1"
       scale_y_rel="false"
       spacing="0"
       normal_offset="0"
       tang_offset="0"
       prop_units="false"
       vertical_pattern="false"
       fuse_tolerance="0" />
    <inkscape:path-effect
       effect="skeletal"
       id="path-effect3972-3"
       is_visible="true"
       pattern="m 192.25096,576.33962 c 0,-2.22158 3.18923,-4.02461 7.11882,-4.02461 3.92957,0 7.1188,1.80303 7.1188,4.02461 0,2.22159 -3.18923,4.02461 -7.1188,4.02461 -3.92959,0 -7.11882,-1.80302 -7.11882,-4.02461 z"
       copytype="single_stretched"
       prop_scale="1"
       scale_y_rel="false"
       spacing="0"
       normal_offset="0"
       tang_offset="0"
       prop_units="false"
       vertical_pattern="false"
       fuse_tolerance="0" />
    <inkscape:path-effect
       effect="skeletal"
       id="path-effect4047-6"
       is_visible="true"
       pattern="M 0,5.0000042 C 0,2.2400042 2.24,4.2010727e-6 5,4.2010727e-6 c 2.76,0 5,2.2399999989273 5,4.9999999989273 0,2.76 -2.24,4.9999998 -5,4.9999998 -2.76,0 -5,-2.2399998 -5,-4.9999998 z"
       copytype="single_stretched"
       prop_scale="1"
       scale_y_rel="false"
       spacing="0"
       normal_offset="0"
       tang_offset="0"
       prop_units="false"
       vertical_pattern="false"
       fuse_tolerance="0" />
  </defs>
  <sodipodi:namedview
     id="base"
     pagecolor="#ffffff"
     bordercolor="#666666"
     borderopacity="1.0"
     inkscape:pageopacity="0.0"
     inkscape:pageshadow="2"
     inkscape:zoom="0.73510161"
     inkscape:cx="549.58388"
     inkscape:cy="701.94377"
     inkscape:document-units="px"
     inkscape:current-layer="layer2"
     showgrid="false"
     inkscape:window-width="2560"
     inkscape:window-height="1403"
     inkscape:window-x="26"
     inkscape:window-y="23"
     inkscape:window-maximized="0"
     showguides="false"
     inkscape:pagecheckerboard="0"
     inkscape:lockguides="false" />
  <metadata
     id="metadata7">
    <rdf:RDF>
      <cc:Work
         rdf:about="">
        <dc:format>image/svg+xml</dc:format>
        <dc:type
           rdf:resource="http://purl.org/dc/dcmitype/StillImage" />
        <dc:title />
      </cc:Work>
    </rdf:RDF>
  </metadata>
  <g
     inkscape:groupmode="layer"
     id="layer1"
     inkscape:label="fond" />
  <g
     inkscape:groupmode="layer"
     id="layer2"
     inkscape:label="1. réteg 1"
     transform="translate(0,-308.26772)"
     style="display:inline">
    <g
       id="g4144"
       transform="translate(-518.96226,-206.18698)"
       style="fill:#ffffff">
      <path
         id="path4059-3"
         style="display:inline;fill:#ffffff;fill-opacity:1;fill-rule:nonzero;stroke:none;stroke-width:0.834512;stroke-linecap:round;stroke-linejoin:round;stroke-miterlimit:4;stroke-dasharray:none;stroke-opacity:1"
         d="m 775.68164,166.61719 a 33.341921,25.048949 49.326593 0 0 -3.55859,0.23828 33.341921,25.048949 49.326593 0 0 -15.14649,33.64844 33.341921,25.048949 49.326593 0 0 37.90625,26.07226 33.341921,25.048949 49.326593 0 0 15.14649,-33.64648 33.341921,25.048949 49.326593 0 0 -34.34766,-26.3125 z m 6.18555,6.10547 a 13.746005,13.746005 0 0 1 13.74609,13.74609 13.746005,13.746005 0 0 1 -13.74609,13.74609 13.746005,13.746005 0 0 1 -13.7461,-13.74609 13.746005,13.746005 0 0 1 13.7461,-13.74609 z"
         transform="matrix(0.9375,0,0,0.9375,517.68693,514.4547)" />
      <path
         id="path4059-3-9"
         style="display:inline;stroke-width:0.834512;stroke-linecap:round;stroke-linejoin:round"
         d="m 597.52344,204.5293 a 33.341921,25.048948 49.326594 0 0 -3.5586,0.23828 33.341921,25.048948 49.326594 0 0 -15.14648,33.64844 33.341921,25.048948 49.326594 0 0 37.90625,26.07226 33.341921,25.048948 49.326594 0 0 15.14648,-33.64648 33.341921,25.048948 49.326594 0 0 -34.34765,-26.3125 z m 6.1914,7.89062 a 13.746005,13.746005 0 0 1 13.7461,13.7461 13.746005,13.746005 0 0 1 -13.7461,13.74609 13.746005,13.746005 0 0 1 -13.74609,-13.74609 13.746005,13.746005 0 0 1 13.74609,-13.7461 z"
         transform="matrix(0.9375,0,0,0.9375,517.68693,514.4547)" />
      <path
         sodipodi:nodetypes="ccc"
         inkscape:connector-curvature="0"
         id="path4148"
         d="m 982.44623,855.34939 c 0.57484,1.25458 -15.34748,9.56649 -40.52993,23.68811 -25.0013,14.02004 -59.70031,34.35329 -94.02376,61.11239 -4e-5,3e-5 -0.84731,0.66193 -0.84736,0.66196 -35.17717,27.53071 -60.51696,54.82377 -79.03715,77.89545 -17.82574,22.2067 -27.22726,37.3267 -28.41895,36.6421 -1.1917,-0.6846 6.10188,-17.1672 22.79106,-40.8729 17.20877,-24.44367 42.71418,-53.53434 78.50224,-81.53963 0.2878,-0.22516 0.57607,-0.45014 0.86482,-0.67495 35.12591,-27.34736 70.7966,-46.93372 96.90298,-59.502 26.23977,-12.6325 43.22121,-18.66511 43.79605,-17.41053 z"
         style="fill:#ffffff;fill-rule:evenodd;stroke:none;stroke-width:1px;stroke-linecap:butt;stroke-linejoin:miter;stroke-opacity:1" />
      <path
         sodipodi:nodetypes="cc"
         inkscape:connector-curvature="0"
         id="path4152"
         d="m 768.16051,1012.4923 c 0.71557,1.18 -3.89666,5.3814 -11.72221,11.4137 -10.23474,7.8893 -20.33466,15.0642 -30.5694,22.9536 -3.73444,2.8853 -7.23647,5.66 -10.61959,8.4126 0,0 0,0 0,0 -8.88195,7.1998 -16.37309,14.0617 -22.08178,18.6357 -5.71982,4.5828 -9.53179,6.9179 -10.36417,6.0843 -0.8087,-0.8099 1.47344,-4.6457 5.97733,-10.4149 4.25578,-5.4514 11.51049,-13.8894 20.18481,-21.6654 0,0 10e-6,0 10e-6,0 3.35693,-3.0009 6.95514,-5.9932 10.79398,-8.9594 12.05515,-9.3148 24.08609,-16.5046 32.89088,-21.0229 8.88842,-4.5613 14.79457,-6.6173 15.51014,-5.4373 z"
         style="fill:#ffffff;fill-rule:evenodd;stroke:none;stroke-width:1px;stroke-linecap:butt;stroke-linejoin:miter;stroke-opacity:1" />
      <path
         sodipodi:nodetypes="cc"
         inkscape:connector-curvature="0"
         id="path4156"
         d="m 706.73194,1051.0637 c 0.0453,1.0465 -4.5395,2.1175 -12.20994,3.702 -7.36962,1.5223 -18.72759,3.7973 -30.38235,7.8641 -7.56857,2.6396 -15.59004,6.1398 -23.3281,10.8435 -2.36214,1.4358 -4.62417,2.939 -6.78673,4.5077 -8.95378,6.4664 -16.09245,13.9759 -21.64177,20.9441 -11.38756,14.2873 -16.93012,25.676 -18.50826,24.9957 -1.57814,-0.6803 1.08981,-13.3452 11.78964,-29.8198 5.24349,-8.0644 12.61518,-16.7175 22.47014,-24.1126 2.37953,-1.7787 4.87633,-3.4656 7.48591,-5.0527 8.56516,-5.2091 17.41681,-8.7811 25.73483,-11.1453 26.10646,-7.4128 45.28612,-4.8196 45.37663,-2.7267 z"
         style="fill:#ffffff;fill-rule:evenodd;stroke:none;stroke-width:1px;stroke-linecap:butt;stroke-linejoin:miter;stroke-opacity:1" />
      <path
         sodipodi:nodetypes="csc"
         inkscape:connector-curvature="0"
         id="path4027"
         d="m 726.03657,1081.8631 c 0.41291,1.0912 -7.18209,5.0887 -20.2141,10.8795 -13.03201,5.7907 -31.52958,13.2396 -52.08516,22.9225 0,0 -10e-6,0 -10e-6,0 -7.44878,3.5138 -15.31196,7.4069 -22.75793,11.8951 -1.281,0.7721 -2.54145,1.5567 -3.78149,2.3561 -6.87335,4.4704 -12.84346,9.0331 -17.3426,14.5533 -0.10711,0.3567 -0.1742,0.091 -0.0347,-0.3889 -0.18418,-0.6253 -0.0964,-0.741 -0.0581,-0.4635 0.31892,0.5315 1.16542,1.0904 2.21358,1.8311 1.63661,1.0746 3.52861,1.9968 5.47427,2.8921 6.91791,3.1611 14.69477,5.7196 20.94142,7.813 0,0 10e-6,0 10e-6,0 21.54847,7.2047 35.47543,11.606 35.11689,13.0879 -0.35853,1.4819 -14.84811,-0.2383 -37.23772,-5.7733 0,0 -10e-6,0 -10e-6,0 -6.51767,-1.6043 -14.55572,-3.7104 -22.36202,-6.8342 -2.17561,-0.8645 -4.50324,-1.9025 -6.82295,-3.2729 -1.44727,-0.8015 -3.09923,-1.9906 -4.66847,-3.7865 -1.16313,-1.2091 -1.99701,-3.1399 -2.14087,-5.7023 0.20235,-2.3976 0.98582,-4.2427 2.06593,-5.4175 5.33315,-6.7601 12.05061,-12.1874 19.43282,-16.9294 1.33044,-0.8617 2.67913,-1.7031 4.04574,-2.5262 7.96486,-4.7972 16.17391,-8.7484 23.89523,-12.1519 0,0 0,0 0,0 20.40871,-9.0087 41.15934,-15.9609 53.93649,-19.8964 13.64897,-4.2041 21.97086,-6.1788 22.38377,-5.0876 z"
         style="fill:#ffffff;fill-rule:nonzero;stroke:none;stroke-width:1px;stroke-linecap:butt;stroke-linejoin:miter;stroke-opacity:1" />
      <path
         sodipodi:nodetypes="ccc"
         inkscape:connector-curvature="0"
         id="path4160"
         d="m 736.73194,1081.0637 c 0.0219,0.9409 -9.7683,1.7719 -26.52939,4.0778 -15.97793,2.1981 -41.30196,6.3134 -66.91742,16.4547 -23.1651,8.0897 -48.31646,21.6905 -67.77571,43.1459 1.6363,0.7226 3.28428,1.4355 4.94333,2.1365 13.91626,5.8804 27.52169,10.4656 41.24061,13.4643 15.47998,4.505 30.168,6.6915 44.10266,6.2477 15.99766,-0.4882 30.09859,-4.5242 41.44386,-9.8498 0,0 10e-6,0 10e-6,0 27.62469,-12.9107 39.92482,-29.404 40.92062,-28.5343 0.99581,0.8697 -9.23538,19.1369 -37.83639,34.6379 0,0 -10e-6,0 -10e-6,0 -11.79885,6.3695 -26.80214,11.392 -44.12639,12.443 -15.01515,0.8932 -30.81911,-1.0583 -47.16109,-5.6206 -14.90545,-5.1575 -29.60436,-12.1862 -44.4061,-20.6523 -1.76451,-1.0092 -3.5139,-2.0294 -5.24751,-3.0578 20.42186,-25.8849 46.60697,-42.7597 70.81225,-52.5481 27.20935,-9.7907 53.03371,-12.6028 69.53218,-13.4027 17.15298,-0.8316 26.98254,0.1169 27.00449,1.0578 z"
         style="fill:#ffffff;fill-rule:evenodd;stroke:none;stroke-width:1px;stroke-linecap:butt;stroke-linejoin:miter;stroke-opacity:1" />
      <path
         sodipodi:nodetypes="ccc"
         inkscape:connector-curvature="0"
         id="path4168"
         d="m 723.8748,1148.2065 c 0.41697,-1.7073 8.33024,-0.9064 19.3916,0.3793 5.12289,0.58 11.40403,1.1995 17.31386,0.5648 1.18021,-0.1184 2.37111,-0.289 3.56814,-0.5139 4.81581,-0.9046 9.20686,-2.5856 13.00098,-4.6604 5.8846,-3.1676 11.01905,-7.6189 14.32553,-10.3572 3.51185,-2.9083 5.83331,-4.5966 6.6856,-3.984 0.85229,0.6126 0.13841,3.4536 -2.35281,7.6467 -2.42197,4.0765 -6.88945,9.8387 -13.77891,14.5844 -4.47307,3.0386 -9.90679,5.4399 -16.0326,6.5935 -1.51889,0.286 -3.03537,0.4865 -4.54114,0.6051 -7.51988,0.5483 -14.43174,-0.7269 -19.829,-2.2492 -11.49379,-3.21 -18.16822,-6.9018 -17.75125,-8.6091 z"
         style="fill:#ffffff;fill-rule:evenodd;stroke:none;stroke-width:1px;stroke-linecap:butt;stroke-linejoin:miter;stroke-opacity:1" />
      <path
         sodipodi:nodetypes="cc"
         inkscape:connector-curvature="0"
         id="path4172"
         d="m 781.01765,1148.2065 c 0.62797,-1.2288 12.51417,3.8069 31.92781,10.727 20.25188,7.2188 45.65071,15.1789 77.34383,21.4457 31.31575,6.1923 58.77023,8.7465 79.95009,10.231 20.67557,1.4493 33.58112,1.9317 33.63542,3.3106 0.054,1.3789 -12.80612,3.4097 -33.8207,3.7677 -21.33029,0.3634 -49.86185,-1.1911 -81.7062,-7.5032 -32.09107,-6.3611 -58.46304,-15.7513 -78.05909,-24.7172 -19.07464,-8.7272 -29.89913,-16.0328 -29.27116,-17.2616 z"
         style="fill:#ffffff;fill-rule:evenodd;stroke:none;stroke-width:1px;stroke-linecap:butt;stroke-linejoin:miter;stroke-opacity:1" />
      <path
         sodipodi:nodetypes="cccc"
         inkscape:connector-curvature="0"
         id="path4176"
         d="m 1085.3034,1072.4922 c 0.3291,0.902 -3.3866,3.1233 -9.8086,6.5676 -5.7531,3.0856 -16.223,8.4478 -24.3047,15.6413 -2.6169,2.3405 -5.1609,4.981 -6.8299,7.949 -1.1949,2.0932 -2.0508,4.4384 -2.3036,6.8142 -0.2656,2.1273 -0.057,4.4501 0.4208,6.8905 0.3519,1.7647 0.8823,3.5706 1.5105,5.46 0.2436,0.733 0.5002,1.4731 0.7624,2.2175 0.531,5.2325 1.4947,10.2087 1.1778,16.4455 7.1036,-9.8026 15.3905,-16.107 23.8027,-19.302 0,0 0,0 0,0 16.4571,-5.0005 27.0532,-1.5975 27.0011,-0.1121 -0.052,1.4854 -10.7822,1.0932 -24.4274,7.1308 0,0 0,0 0,0 -8.7839,3.1099 -18.0625,8.3194 -27.6258,16.3121 -2.0947,-5.3906 -5.6176,-10.4543 -9.3372,-17.1014 -0.2895,-0.7947 -0.5753,-1.6082 -0.8506,-2.4397 -0.7094,-2.1421 -1.334,-4.3568 -1.791,-6.6725 -0.6506,-3.2537 -0.837,-6.6627 -0.3794,-10.0953 0.5634,-3.8974 1.9799,-7.461 3.925,-10.5062 2.6785,-4.1457 6.0474,-7.3539 9.3417,-9.8448 10.1391,-7.6821 21.2281,-11.701 27.9193,-13.6614 7.178,-2.103 11.4678,-2.5951 11.7969,-1.6931 z"
         style="fill:#ffffff;fill-rule:evenodd;stroke:none;stroke-width:1px;stroke-linecap:butt;stroke-linejoin:miter;stroke-opacity:1" />
      <path
         sodipodi:nodetypes="cssssscc"
         inkscape:connector-curvature="0"
         id="path4184"
         d="m 1156.7319,1109.6351 c 0.4684,-0.4561 5.8777,4.0192 14.9078,13.0623 8.2994,8.3114 22.445,23.3962 34.4147,42.1359 4.1391,6.4767 8.3303,13.9652 11.4451,22.2753 2.1513,5.7037 3.8404,12.1241 4.1025,18.9666 0.1966,5.1897 -0.5901,10.6822 -2.788,15.9024 -2.0134,4.6761 -5.0863,8.8807 -8.9129,12.3442 -4.0029,3.6144 -8.607,6.4401 -13.4782,8.6433 -5.3662,2.4401 -11.0037,4.2132 -16.7858,5.546 -12.9086,2.9778 -26.2543,3.9823 -40.0703,4.0068 -14.1631,0.04 -28.5283,-0.9723 -43.2121,-2.7799 -6.6662,-0.8191 -13.3793,-1.799 -20.1237,-2.9539 -6.5406,-1.1201 -12.9982,-2.3856 -19.369,-3.7952 -5.4649,-1.2088 -10.8623,-2.5265 -16.1979,-4.0073 -4.2781,-1.1857 -8.5301,-2.4745 -12.7396,-3.9995 -2.7308,-0.9552 -5.6033,-2.2438 -8.3527,-4.1802 -1.8046,-1.1874 -3.5855,-3.0407 -4.8974,-5.6405 -0.9523,-2.1523 -1.1988,-4.4522 -0.7612,-6.6581 0.4689,-2.1028 1.2874,-3.8415 2.2368,-5.2085 0,0 0,0 0,0 1.8694,-2.7428 3.9775,-4.7772 5.7623,-6.4709 0.6755,-0.7334 1.0719,-0.9959 0.9665,-0.9586 -0.263,-0.2309 -0.366,0.6994 -0.4645,2.8057 1.2621,2.5296 2.2226,3.6778 3.048,3.4344 -0.2944,-0.1107 -0.8746,-0.1552 -1.6965,-0.2639 -1.0216,-0.1129 -2.118,-0.2022 -3.282,-0.3194 0,0 0,0 0,0 -2.7026,-0.2504 -5.6023,-0.6695 -8.5914,-1.6101 -3.0611,-0.8813 -6.1658,-2.7448 -8.576,-5.7943 -2.6795,-4.0566 -3.2249,-8.4969 -2.5562,-12.2195 0.4059,-2.0758 1.1972,-3.5918 2.1108,-4.5357 1.0555,-1.2315 2.1486,-2.1648 3.1658,-2.8763 0,0 0,0 0,0 2.3607,-1.6904 4.7652,-2.9491 6.9929,-4.022 1.0194,-0.4984 2.0245,-0.9692 2.9748,-1.4229 0.7333,-0.3567 1.3319,-0.6271 1.7667,-0.8871 0.1626,-0.1244 0.1173,-0.061 -0.1517,0.1477 0,0 0,10e-5 0,10e-5 -0.5094,-0.6614 -0.8145,0.7586 -1.0773,4.2644 2.1811,2.752 3.1621,3.7371 3.1053,2.8735 0.2895,0.019 0.2981,0.044 0.03,0.021 0,0 0,0 0,0 -2.7746,0.027 -5.4667,-0.2997 -8.0188,-0.8699 -2.6999,-0.5641 -5.4863,-1.5077 -8.1372,-3.0679 0,0 0,0 0,0 -2.3917,-1.2231 -4.6248,-3.613 -5.737,-7.1066 -0.41173,-1.8661 -0.31201,-3.6428 0.18078,-5.1979 0.64435,-2.0078 1.61254,-3.6397 2.65952,-4.9228 4.4019,-5.6222 9.7424,-10.135 15.4659,-13.4562 5.9363,-3.4318 12.2004,-5.6188 18.2202,-6.9297 13.9497,-3.0227 27.4478,-1.9769 37.8532,-0.2201 0,0 0,0 0,0 13.0687,2.1837 23.1551,5.7059 30.0066,8.7043 3.9412,1.7205 6.4497,3.0861 8.4008,4.4697 0.9308,0.6523 1.5049,1.1487 1.912,1.7083 0.1724,0.2104 0.2885,0.456 0.3138,0.6854 0.019,0.1145 -0.017,0.2307 -0.068,0.3114 0,0 0,0 0,0 -0.1452,0.1895 -0.2524,0.1174 -0.2833,0.066 -0.031,-0.051 0.012,-0.1601 -0.053,-0.1895 0,0 0,0 0,0 -0.018,-0.01 -0.052,-0.014 -0.076,-0.03 -0.069,-0.066 -0.1972,-0.1003 -0.3946,-0.2365 -0.4583,-0.2606 -1.1348,-0.5436 -2.1043,-0.9528 -2.382,-0.9764 -4.3894,-1.6966 -8.6909,-3.0245 -6.989,-2.1468 -16.991,-4.7902 -29.7026,-6.1889 0,0 0,0 0,0 -10.0893,-1.0917 -22.9568,-1.5173 -35.4898,1.742 -5.3923,1.3964 -10.8974,3.5149 -15.9137,6.6452 -4.8251,2.9988 -9.2917,6.9986 -12.8962,11.8602 -0.6004,0.8739 -1.0845,1.6316 -1.2063,2.2652 -0.074,0.3994 -0.1162,0.7359 -0.029,0.8631 -0.1417,0.3899 0.8327,0.9697 1.9528,1.8214 0,0 0,10e-5 0,10e-5 1.5275,0.9082 3.457,1.4563 5.6027,1.9144 2.0256,0.3955 4.0672,0.6107 6.0559,0.5421 0,0 0,0 0,0 0.3027,-0.034 0.8837,-0.018 1.736,0.1047 0.1872,-0.8188 1.4834,0.2162 3.7373,3.2058 -0.1964,3.7212 -0.7126,5.3394 -1.3884,4.8306 0,0 -10e-5,10e-5 -10e-5,10e-5 -0.6081,0.5197 -1.0435,0.8207 -1.276,0.933 -0.9079,0.5432 -1.7204,0.9465 -2.4003,1.2812 -0.9842,0.4928 -1.959,0.9712 -2.8807,1.4431 -2.0792,1.0798 -4.0323,2.1138 -5.6123,3.3256 0,0 -10e-5,10e-5 -10e-5,10e-5 -0.6725,0.5328 -1.2121,0.9669 -1.4985,1.367 -0.1532,0.3582 -0.2544,0.3269 -0.071,-0.071 -0.1227,2.3273 -0.076,4.5516 0.9465,5.4961 0.5875,1 2.1437,1.6968 3.9538,2.367 1.9118,0.6203 4.1496,0.8698 6.6364,1.1128 0,0 0,0 0,0 1.0451,0.093 2.168,0.1718 3.3658,0.2889 0.8368,0.063 1.9324,0.1947 3.2523,0.5282 1.1768,-0.1467 2.511,1.2125 3.8375,4.101 -0.025,2.518 -0.3569,3.8521 -0.8424,3.9759 -0.9806,1.4329 -1.8377,2.2841 -2.3401,2.7114 -1.8131,1.852 -3.4733,3.381 -4.396,4.918 0,0 0,0 0,0 -0.4439,0.7689 -0.7864,1.3712 -0.8102,1.785 -0.045,0.2573 -0.019,0.5773 0.083,0.7179 0.083,0.4353 0.8105,0.984 1.7402,1.7555 1.5763,1.1628 3.6518,2.0101 5.9805,2.873 3.8842,1.3832 7.9009,2.5722 12.0415,3.7031 5.144,1.4028 10.3774,2.6597 15.71,3.8262 6.2194,1.36 12.5247,2.5873 18.9136,3.6812 6.5878,1.128 13.148,2.0941 19.6653,2.9125 14.3609,1.7997 28.3056,2.8653 41.9932,2.9353 13.3939,0.054 26.0141,-0.7161 38.0196,-3.3392 5.3554,-1.1711 10.4335,-2.6628 15.1383,-4.7231 4.2526,-1.8741 8.129,-4.1116 11.3237,-6.9289 3.0125,-2.648 5.4512,-5.7888 6.9857,-9.2104 1.7512,-3.7935 2.4432,-8.1019 2.4262,-12.3137 -0.022,-5.6385 -1.3799,-11.3079 -3.1487,-16.5903 -2.5937,-7.6879 -6.3248,-14.9034 -10.0527,-21.3016 -22.6387,-38.8277 -44.4743,-57.8206 -43.5375,-58.7329 z"
         style="fill:#ffffff;fill-rule:nonzero;stroke:none;stroke-width:1px;stroke-linecap:butt;stroke-linejoin:miter;stroke-opacity:1" />
      <path
         sodipodi:nodetypes="cc"
         inkscape:connector-curvature="0"
         id="path4192"
         d="m 1208.1605,1178.2065 c -0.7984,-1.5179 6.5381,-6.4902 13.1072,-17.0859 3.4441,-5.5862 6.5115,-12.4937 8.1865,-20.5863 0.2785,-1.3479 0.5146,-2.7213 0.7051,-4.1171 0.954,-6.9891 0.648,-13.6408 -0.4224,-19.5882 -1.3933,-7.8653 -4.1861,-14.4984 -6.1834,-19.0623 -2.0299,-4.6384 -3.3131,-7.4948 -2.5359,-8.1316 0.8767,-0.7184 12.2921,6.1965 17.5617,25.1511 1.8817,6.8285 2.62,14.6912 1.4878,22.9835 -0.2257,1.6534 -0.5199,3.2787 -0.8778,4.8712 -2.1397,9.5358 -6.4028,17.4236 -11.2188,23.3068 -9.5698,11.7421 -19.199,13.4205 -19.81,12.2588 z"
         style="fill:#ffffff;fill-rule:evenodd;stroke:none;stroke-width:1px;stroke-linecap:butt;stroke-linejoin:miter;stroke-opacity:1" />
      <path
         sodipodi:nodetypes="cc"
         inkscape:connector-curvature="0"
         id="path4169"
         d="m 1219.5891,1171.0637 c 0.032,-1.2277 9.6804,-1.49 24.2428,-6.483 7.1476,-2.4557 15.1244,-5.9598 23.7603,-11.1094 0,0 0,0 0,0 13.475,-8.0561 27.8641,-19.6493 39.1865,-35.4541 0.058,-0.081 0.1157,-0.1617 0.1733,-0.2427 5.0625,-7.1125 9.045,-14.4516 11.7449,-21.9437 2.8365,-7.8798 4.1911,-15.6384 4.0984,-22.9402 -0.087,-8.8568 -2.3188,-16.8649 -5.2071,-23.323 0,0 0,0 0,0 -7.2026,-16.1946 -16.7344,-23.9096 -15.8563,-24.9325 0.8781,-1.023 12.2208,4.5889 22.0419,21.7782 0,0 0,0 0,0 3.9274,6.9071 7.1396,15.826 7.7858,26.1421 0.5102,8.4606 -0.6755,17.4577 -3.709,26.4585 -2.8715,8.5301 -7.1938,16.7856 -12.7579,24.5683 -0.063,0.088 -0.1262,0.1765 -0.1895,0.2646 -12.4118,17.2723 -28.2742,29.3519 -43.1227,37.1205 0,0 0,0 0,0 -9.4901,4.9789 -18.3786,8.0544 -26.1992,9.8194 -15.986,3.6182 -26.0239,1.5047 -25.9922,0.277 z"
         style="fill:#ffffff;fill-rule:evenodd;stroke:none;stroke-width:1px;stroke-linecap:butt;stroke-linejoin:miter;stroke-opacity:1" />
      <path
         style="fill:#ffffff;fill-rule:nonzero;stroke:none;stroke-width:1px;stroke-linecap:butt;stroke-linejoin:miter;stroke-opacity:1"
         d="m 1328.4912,1062.7681 c 0.9817,-0.1807 4.6784,10.2428 2.4832,28.2101 -0.4948,4.1183 -1.3358,8.7507 -2.789,13.5521 -1.038,3.4747 -2.4899,7.3131 -4.7685,10.9811 -4.1522,6.7255 -8.7388,14.8231 -10.8138,23.3571 -0.6678,2.7365 -1.1092,5.5393 -1.0369,8.2556 0.058,2.1538 0.3906,4.2914 1.1296,6.2058 0.6385,1.7007 1.6107,3.3237 2.8402,4.7431 1.2299,1.4368 2.7869,2.7035 4.54,3.8248 3.9172,2.5347 8.717,4.0311 13.9704,5.1563 5.8336,1.2089 11.9559,1.6958 18.372,1.8167 6.4711,0.1138 13.0583,-0.2018 19.7969,-0.8296 2.2997,-0.215 4.6075,-0.4665 6.9222,-0.7552 3.8571,-0.481 7.6705,-1.0574 11.4353,-1.7229 4.8559,-0.8613 9.5385,-1.8249 14.0685,-3.0591 1.3678,-0.4121 2.493,-0.7661 3.2123,-1.2852 0.399,-0.3403 0.671,-0.4843 0.5703,-0.4646 -0.012,0.1217 -0.026,0.065 -0.01,-0.035 0.023,-0.1958 -0.1239,-0.5777 -0.3214,-1.1188 -0.3834,-1.0213 -1.2866,-2.2535 -2.2842,-3.8388 -0.2834,-0.3101 -0.8097,-1.1852 -1.3776,-2.6915 0,0 0,0 0,0 -0.3989,-0.3821 -0.373,-1.6617 0.1593,-3.7944 0,0 10e-5,-2e-4 10e-5,-2e-4 1.4647,-2.1359 2.7915,-3.1412 3.8883,-3.0411 2.1978,-0.3031 3.7692,-0.1612 4.6635,-0.083 0,0 0,0 0,0 1.4799,0.017 2.6758,0.051 3.5528,-0.1776 0.7447,-0.2328 1.3685,-0.4362 1.4356,-0.686 0.5397,-0.2887 0.5862,-1.6639 0.7579,-3.3311 0,0 10e-5,0 10e-5,0 0.3863,0.6687 -0.054,0.5711 -0.5523,-0.4368 -0.7409,-0.8792 -1.7882,-1.7432 -2.9542,-2.6953 -0.7986,-0.6321 -1.8805,-1.3882 -3.1123,-2.5109 -0.1586,-0.1152 -0.4688,-0.4452 -0.9075,-1.0036 -0.5885,0.2558 -0.8326,-1.2086 -0.6423,-4.3653 2.2887,-2.738 3.6546,-3.7051 4.0113,-2.9633 0,0 10e-5,0 10e-5,0 0.861,-0.021 1.3853,0.024 1.5735,0.093 0,0 10e-5,0 10e-5,0 2.2763,0.3184 4.4881,0.2685 6.0185,-0.5642 0,0 0,0 0,0 0.441,-0.3297 0.8279,-0.4759 0.6576,-0.4068 0.2992,0.076 -0.1115,-0.7115 -0.4345,-1.8567 -3.3578,-7.1584 -9.2391,-12.4505 -15.3864,-15.3275 -6.941,-3.3044 -14.6793,-4.1887 -20.8469,-4.3329 0,0 0,0 0,0 -7.7307,-0.1529 -14.0144,0.806 -18.4007,1.6507 -2.8208,0.552 -3.9173,0.8115 -5.5546,1.2647 -0.6404,0.1907 -1.0717,0.2928 -1.3851,0.408 0,0 0,0 0,0 -0.1378,0.069 -0.2242,0.056 -0.2822,0.075 -0.088,-0.093 -0.1764,0.099 -0.2033,0.128 -0.061,0.066 -0.344,0.058 -0.2957,-0.3229 0.016,-0.1767 0.099,-0.3769 0.2162,-0.5327 0,0 0,0 0,0 0.26,-0.3961 0.6615,-0.7608 1.2563,-1.1806 1.242,-0.8917 2.9056,-1.7516 5.4109,-2.7223 4.3361,-1.6886 10.8363,-3.53 19.0963,-4.1079 0,0 0,0 0,0 6.6412,-0.4855 15.2153,-0.1177 23.7571,3.2557 7.7382,3.1126 15.2795,9.1876 19.9477,18.0795 1.1898,1.8817 1.8588,4.6906 1.1004,8.0762 -0.9846,2.618 -2.7024,4.4681 -4.675,5.4089 0,0 0,0 0,0 -3.6442,1.8915 -7.6857,2.3791 -11.4098,1.725 0,0 0,0 0,0 -0.1577,0.014 0.016,0 0.5269,0.01 0,0 0,0 0,0 0.1995,0.7541 1.3681,-0.186 3.602,-2.7759 0.1347,-3.0076 0,-4.3139 -0.4933,-3.9294 -0.2592,-0.3117 -0.3451,-0.4311 -0.2778,-0.3405 0.5632,0.514 1.495,1.098 2.6406,1.9759 1.334,0.9893 2.7924,2.1736 4.2083,3.6834 1.2693,0.9663 2.5647,3.0909 2.9989,6.442 0,0 10e-5,0 10e-5,0 0.2188,2.6759 -0.398,5.9742 -2.5839,9.1851 -1.8959,2.2691 -4.2713,3.6483 -6.6824,4.1471 -2.1993,0.4848 -4.193,0.5652 -5.9104,0.5085 0,0 0,0 0,0 -1.5514,0.022 -2.4833,-0.1486 -2.7145,-0.01 0.8208,0.1505 1.8606,-0.7204 3.2138,-2.5986 0,0 10e-5,-2e-4 10e-5,-2e-4 0.411,-1.852 0.5058,-2.8058 0.1982,-2.8959 0,0 0,0 0,0 -0.2559,-0.4763 -0.056,-0.325 0.2576,0.2647 0.9228,1.3373 2.1049,3.028 3.1363,5.2517 0.5355,1.1399 0.9541,2.5391 1.1333,4.1818 0.1695,1.6893 -0.1301,3.4734 -0.9444,5.2134 -1.0804,1.9955 -2.4698,3.4299 -3.9226,4.3147 -2.0627,1.3213 -4.1243,2.1217 -6.0027,2.608 -4.9229,1.382 -9.9048,2.4461 -14.9489,3.3548 -3.9333,0.7109 -7.9198,1.3214 -11.9538,1.8244 -2.4208,0.3019 -4.8351,0.5621 -7.2412,0.7815 -7.0471,0.6448 -14.0191,0.9343 -20.9321,0.7545 -6.8333,-0.1699 -13.5738,-0.8135 -20.1746,-2.2695 -5.9332,-1.2723 -11.7886,-3.3382 -17.0349,-6.7701 -2.388,-1.5751 -4.5866,-3.4945 -6.46,-5.7567 -1.8788,-2.2855 -3.3187,-4.8703 -4.265,-7.6123 -1.0423,-3.0793 -1.4579,-6.2066 -1.4109,-9.1947 0.059,-3.7197 0.714,-7.2407 1.6573,-10.4612 2.9137,-9.9085 8.2055,-18.4057 12.9575,-25.1109 1.9725,-2.7453 3.4138,-6.0002 4.6069,-9.1093 1.6189,-4.264 2.7358,-8.5246 3.55,-12.3621 3.5375,-16.8685 1.8815,-27.1496 2.8632,-27.3303 z"
         id="path4189"
         inkscape:connector-curvature="0"
         sodipodi:nodetypes="csssssscc" />
      <path
         sodipodi:nodetypes="cc"
         inkscape:connector-curvature="0"
         id="path3874"
         d="m 1382.1503,1101.4808 c -1.3515,-0.2791 -1.5991,-4.1533 -2.7392,-9.7369 -1.159,-5.676 -3.3075,-12.8835 -8.0361,-19.8765 -0.2564,-0.3791 -0.5168,-0.7521 -0.781,-1.1189 -3.1894,-4.3935 -6.679,-7.7177 -10.2165,-10.1638 -3.4818,-2.4145 -6.6814,-3.7927 -9.1608,-4.8365 -2.4214,-1.0194 -4.0282,-1.6906 -4.0664,-2.608 -0.052,-1.2576 6.6897,-4.7718 17.3105,0.023 5.0441,2.2765 10.1166,6.1488 14.1946,11.6852 0.3423,0.462 0.6765,0.9335 1.002,1.4144 6.0382,8.9184 7.4478,18.4049 6.8065,25.1888 -0.6434,6.8064 -3.0874,10.2822 -4.3136,10.029 z"
         style="fill:#ffffff;fill-rule:evenodd;stroke:none;stroke-width:1px;stroke-linecap:butt;stroke-linejoin:miter;stroke-opacity:1" />
      <path
         sodipodi:nodetypes="ccc"
         inkscape:connector-curvature="0"
         id="path3886"
         d="m 1300.3034,1024.6351 c -0.1304,-0.3618 1.1863,-1.9152 4.7111,-1.414 0,0 0,0 0,0 1.8436,0.2187 3.9269,0.8538 6.2786,2.0339 4.2579,2.1148 8.8768,5.5199 13.6007,10.7038 4.0736,4.431 8.1817,10.1577 11.2269,17.1618 1.4449,5.5634 1.7903,12.284 -0.3078,19.5081 3.427,-6.2908 6.1684,-13.6447 6.9012,-21.5699 0.1438,-1.555 0.2085,-3.1132 0.1904,-4.673 1.3611,-7.9761 0.1706,-16.1902 -2.0795,-23.4323 -2.8477,-9.1427 -7.6767,-17.7003 -11.7533,-24.42181 0,0 0,-10e-6 0,-10e-6 -9.7258,-15.98151 -17.0663,-25.78952 -15.9112,-26.75373 1.155,-0.9642 10.4521,6.9247 22.1528,22.5182 0,0 0,10e-6 0,10e-6 4.9555,6.58364 10.656,15.31104 14.408,25.64354 3.0037,8.2649 4.5862,17.9881 3.0407,28.0359 -0.5476,1.7228 -1.1938,3.4279 -1.9329,5.1125 -3.777,8.6083 -9.6924,16.0547 -16.0352,22.1248 -0.9568,-6.5067 -3.693,-13.1155 -6.7651,-18.8584 -2.209,-6.1419 -5.4056,-11.5003 -8.6075,-15.8742 -3.85,-5.1998 -7.2108,-8.6248 -10.5878,-11.2738 -1.8807,-1.4611 -3.2133,-2.3343 -4.6289,-3.018 0,0 0,0 0,0 -2.3326,-1.0479 -3.7192,-1.0487 -3.9012,-1.5534 z"
         style="fill:#ffffff;fill-rule:nonzero;stroke:none;stroke-width:1px;stroke-linecap:butt;stroke-linejoin:miter;stroke-opacity:1" />
      <path
         sodipodi:nodetypes="ccc"
         inkscape:connector-curvature="0"
         id="path3890"
         d="m 1314.5891,973.20654 c 0.753,-1.06004 9.443,2.08432 22.1578,11.79773 0,0 0,0 0,0 5.4667,4.9167 10.7312,12.27196 13.5,22.29773 1.3219,-7.52793 1.3053,-16.06663 -1.0628,-24.83055 -0.3542,-4.50441 -1.2803,-9.06906 -2.7377,-13.6287 -1.2856,-4.02225 -2.9358,-7.88729 -4.823,-11.52957 0,0 0,0 0,0 -9.5312,-18.58262 -25.2956,-32.80138 -35.6391,-41.73216 -10.8625,-9.37897 -17.7924,-14.88857 -17.1095,-15.94591 0.6829,-1.05735 8.8617,2.43201 21.1285,10.66918 11.7862,7.91448 29.0717,21.75404 40.3621,42.36576 0,1e-5 0,1e-5 0,1e-5 2.219,4.08874 4.1357,8.48906 5.6106,13.13941 1.6712,5.26942 2.6994,10.62076 3.0531,15.95354 -0.9825,10.52271 -4.4251,20.39909 -8.6692,28.77659 -5.2644,-8.641 -12.0038,-15.46532 -18.0136,-20.41783 0,0 0,0 0,0 -10.4473,-10.20403 -18.5102,-15.85519 -17.7572,-16.91523 z"
         style="fill:#ffffff;fill-rule:evenodd;stroke:none;stroke-width:1px;stroke-linecap:butt;stroke-linejoin:miter;stroke-opacity:1" />
      <path
         sodipodi:nodetypes="cc"
         inkscape:connector-curvature="0"
         id="path3920"
         d="m 1002.4462,757.49225 c 0.9866,0.91155 -2.97268,6.50125 -8.01137,15.92586 -5.01489,9.38011 -11.01015,22.89523 -12.00607,38.71677 0,0 0,0 0,0 -0.0605,0.86911 -0.10767,1.74403 -0.14155,2.62478 -0.36456,9.47641 0.85068,18.55563 2.56368,26.52473 4.27161,19.85388 10.75408,33.12575 9.02391,34.065 -1.73016,0.93926 -11.41504,-10.8041 -17.71415,-31.81717 -2.53875,-8.46694 -4.25658,-18.43468 -3.86021,-29.14895 0.0367,-0.99249 0.0912,-1.98001 0.16333,-2.96221 0,0 0,0 0,0 1.44397,-18.22528 9.20529,-32.70586 16.14436,-41.77711 6.95652,-9.09407 12.85147,-13.06325 13.83807,-12.1517 z"
         style="fill:#ffffff;fill-rule:evenodd;stroke:none;stroke-width:1px;stroke-linecap:butt;stroke-linejoin:miter;stroke-opacity:1" />
      <path
         sodipodi:nodetypes="cc"
         inkscape:connector-curvature="0"
         id="path3924"
         d="m 1019.2319,813.92082 c 0.8034,1.62966 -4.9098,5.60285 -9.8158,13.14156 -2.4353,3.68397 -4.4753,8.01143 -6.2376,13.33506 -0.1578,0.47302 -0.3118,0.95028 -0.4625,1.43217 -2.5212,8.0661 -3.90856,17.32949 -5.02965,23.06151 -1.21212,6.19742 -2.3902,10.11446 -3.81155,10.10114 -1.37994,-0.0129 -2.68734,-3.92922 -3.27558,-10.44723 -0.57563,-6.37831 -0.40737,-15.82729 2.57442,-25.65167 0.16968,-0.55906 0.34671,-1.11366 0.53106,-1.66369 2.11283,-6.26599 5.28286,-11.51253 9.0313,-15.53258 8.145,-8.64889 15.9153,-8.9541 16.4959,-7.77627 z"
         style="fill:#ffffff;fill-rule:evenodd;stroke:none;stroke-width:1px;stroke-linecap:butt;stroke-linejoin:miter;stroke-opacity:1" />
      <path
         sodipodi:nodetypes="ccc"
         inkscape:connector-curvature="0"
         id="path3932"
         d="m 1012.4462,816.42082 c 0.7555,0.48395 -0.2589,3.40496 -1.8309,8.27445 -1.5041,4.6591 -3.727,11.95 -3.8135,19.97913 -0.147,7.49064 1.5538,15.81023 5.5545,24.28044 0.7569,1.60599 1.588,3.20112 2.4916,4.78909 4.1121,7.22596 9.3872,13.68749 14.3842,19.17619 12.7488,14.79113 23.9902,23.44191 26.0671,26.11421 -0.3436,1.14258 -0.7578,1.41827 -1.0673,1.31507 -0.3102,-0.10342 -0.4776,-0.56365 -0.3529,-0.82781 -3.4757,-1.32716 -18.3523,-8.83622 -31.185,-20.17237 -5.7954,-5.48501 -11.794,-12.36752 -16.5204,-20.66712 -1.0327,-1.81345 -1.9814,-3.65363 -2.8431,-5.5196 -4.60988,-10.00011 -6.01114,-20.15118 -5.01057,-29.08084 1.15458,-9.64255 4.89417,-17.12272 7.85127,-21.56054 3.0482,-4.5745 5.5195,-6.58425 6.275,-6.1003 z"
         style="fill:#ffffff;fill-rule:evenodd;stroke:none;stroke-width:1px;stroke-linecap:butt;stroke-linejoin:miter;stroke-opacity:1" />
      <path
         sodipodi:nodetypes="cc"
         inkscape:connector-curvature="0"
         id="path3936"
         d="m 1054.9462,865.34939 c 1.2287,1.23638 -1.6744,5.69279 -3.3769,12.19264 -0.8556,3.16371 -1.348,6.75398 -1.2928,10.86573 0,0.88438 0.033,1.77969 0.089,2.68981 0.4154,6.74463 2.3357,13.67353 3.4528,18.43999 1.1689,4.98762 1.6694,8.3628 0.414,9.02612 -1.2201,0.6447 -3.9484,-1.56543 -6.944,-6.19699 -2.9565,-4.57134 -6.2212,-11.82744 -6.8505,-20.60166 -0.082,-1.14121 -0.1166,-2.27588 -0.1047,-3.40162 0.098,-5.38941 1.4773,-10.19054 3.528,-14.02462 4.4165,-8.14049 10.1385,-9.94227 11.0855,-8.9894 z"
         style="fill:#ffffff;fill-rule:evenodd;stroke:none;stroke-width:1px;stroke-linecap:butt;stroke-linejoin:miter;stroke-opacity:1" />
      <path
         sodipodi:nodetypes="cc"
         inkscape:connector-curvature="0"
         id="path3940"
         d="m 1054.2319,866.77796 c 0.916,0.15042 1.2688,2.66917 1.9498,6.66716 0.6577,3.8621 1.7774,9.64797 4.8149,15.05413 2.8484,5.2607 7.3336,10.18032 13.45,14.75004 0.3183,0.23618 0.6401,0.47029 0.9653,0.70241 6.1882,4.41728 13.051,7.68978 19.0302,10.24393 13.1391,5.58426 22.9315,8.21363 22.647,10.08233 -0.2845,1.8687 -10.7973,2.5363 -25.5879,-1.81699 -6.8071,-1.99061 -14.5629,-5.18301 -21.8789,-10.36314 -0.3809,-0.2697 -0.758,-0.54302 -1.1314,-0.81996 -7.2849,-5.37155 -12.4832,-12.07033 -15.364,-19.11501 -2.9824,-7.5385 -2.8357,-14.441 -2.0404,-18.79843 0.815,-4.46514 2.2294,-6.73689 3.1454,-6.58647 z"
         style="fill:#ffffff;fill-rule:evenodd;stroke:none;stroke-width:1px;stroke-linecap:butt;stroke-linejoin:miter;stroke-opacity:1" />
      <path
         sodipodi:nodetypes="cc"
         inkscape:connector-curvature="0"
         id="path3944"
         d="m 1084.4845,875.5586 c 1.2545,-0.44649 3.3868,2.05157 6.0169,6.28178 2.6301,4.23022 5.7439,10.16163 9.5323,16.38664 0,0 0,0 0,0 0.2736,0.45206 0.551,0.90593 0.8327,1.36183 4.2552,6.88864 7.8644,11.7141 11.1088,16.32635 2.9689,4.22058 4.7854,7.16544 3.8945,8.25816 -0.8463,1.03797 -4.2947,0.0256 -8.8763,-3.24365 -4.6234,-3.29917 -10.0674,-8.69819 -14.6333,-16.08431 -0.3159,-0.51097 -0.6223,-1.02298 -0.9193,-1.53555 0,0 0,0 0,-10e-6 -4.0423,-7.01254 -6.3252,-13.94872 -7.343,-18.94569 -1.0298,-5.05618 -0.8678,-8.35906 0.3867,-8.80555 z"
         style="fill:#ffffff;fill-rule:evenodd;stroke:none;stroke-width:1px;stroke-linecap:butt;stroke-linejoin:miter;stroke-opacity:1" />
      <path
         sodipodi:nodetypes="cc"
         inkscape:connector-curvature="0"
         id="path3948"
         d="m 1085.8242,878.69991 c 1.0283,-0.85362 4.6006,1.66054 9.8179,6.03159 5.0333,4.21688 12.2886,10.71653 20.2319,16.59017 0,0 0,0 0,0 0.5297,0.39207 1.0651,0.78345 1.6064,1.17388 8.9284,6.44116 16.5857,10.60019 23.2254,13.98745 6.2633,3.19521 10.3871,5.18386 10.0999,6.53364 -0.2728,1.28224 -5.0231,1.80565 -12.472,0.1166 -7.5789,-1.71853 -17.125,-5.58847 -26.7133,-12.52953 -0.593,-0.42931 -1.1766,-0.86347 -1.7507,-1.30192 0,0 0,-10e-6 0,-10e-6 -8.7627,-6.69866 -15.2914,-14.19087 -19.3192,-19.90918 -4.0567,-5.7594 -5.7546,-9.83907 -4.7263,-10.69269 z"
         style="fill:#ffffff;fill-rule:evenodd;stroke:none;stroke-width:1px;stroke-linecap:butt;stroke-linejoin:miter;stroke-opacity:1" />
      <path
         sodipodi:nodetypes="cc"
         inkscape:connector-curvature="0"
         id="path3952"
         d="m 1125.2994,890.18668 c 1.5963,-0.0313 3.3689,3.63472 6.3251,7.335 1.7722,2.23868 3.532,4.03257 6.1965,6.78069 0.2336,0.23843 0.4689,0.47777 0.7075,0.72001 4.0907,4.1519 7.4083,7.45151 9.9079,11.0684 2.3154,3.35045 3.1129,5.95366 2.1168,6.92587 -0.9767,0.95327 -3.5157,0.15181 -6.8796,-1.6995 -3.2032,-1.76284 -7.9995,-4.96949 -12.2569,-9.26999 -0.2711,-0.27385 -0.5381,-0.5501 -0.8009,-0.82881 -2.871,-3.01746 -5.0474,-6.28531 -6.3818,-9.64947 -2.7824,-6.98123 -0.4412,-11.35265 1.0654,-11.3822 z"
         style="fill:#ffffff;fill-rule:evenodd;stroke:none;stroke-width:1px;stroke-linecap:butt;stroke-linejoin:miter;stroke-opacity:1" />
      <path
         sodipodi:nodetypes="cc"
         inkscape:connector-curvature="0"
         id="path3956"
         d="m 1260.9123,908.11689 c -0.6842,-1.69994 5.5909,-5.27653 12.8288,-11.36222 3.0194,-2.53593 6.1845,-5.69869 8.6672,-9.50956 0.4932,-0.73866 0.9659,-1.50736 1.4214,-2.30717 1.9992,-3.5103 3.5322,-7.39873 4.8088,-10.961 4.0477,-11.41895 6.3064,-20.40064 8.3868,-20.15576 2.0804,0.24488 3.4804,9.52146 0.5264,22.69354 -0.929,4.1917 -2.4774,8.84348 -5.0466,13.36049 -0.5791,1.01811 -1.1972,2.00665 -1.8545,2.9633 -3.4997,5.00351 -7.8606,8.60124 -12.0248,11.00963 -9.7064,5.58246 -17.0293,5.96869 -17.7135,4.26875 z"
         style="fill:#ffffff;fill-rule:evenodd;stroke:none;stroke-width:1px;stroke-linecap:butt;stroke-linejoin:miter;stroke-opacity:1" />
      <path
         sodipodi:nodetypes="cc"
         inkscape:connector-curvature="0"
         id="path3960"
         d="m 1126.057,891.70191 c 0.6456,-0.6961 4.9899,2.50214 12.9046,6.90827 7.9687,4.43625 19.5283,9.84542 34.5173,12.72354 13.6151,2.61364 29.2286,3.04031 45.8148,-0.11767 1.2119,-0.23075 2.415,-0.4781 3.6087,-0.74139 17.4721,-3.88557 32.0106,-10.87355 43.3736,-19.31741 6.94,-5.15046 12.2852,-10.51157 16.4302,-15.59269 8.869,-10.86603 11.8784,-19.33112 13.0415,-18.97161 1.1631,0.3595 0.3435,9.83591 -7.8421,22.70725 -3.8127,5.99294 -9.1531,12.40858 -16.3716,18.48668 -11.8182,9.94108 -27.5319,18.20695 -46.4558,22.44092 -1.2928,0.2914 -2.5965,0.56299 -3.9105,0.81399 -17.9932,3.43695 -35.0087,2.4858 -49.5834,-1.11851 -16.0887,-3.97613 -28.0095,-11.05816 -35.5121,-17.01266 -7.4839,-5.93976 -10.6608,-10.51261 -10.0152,-11.20871 z"
         style="fill:#ffffff;fill-rule:evenodd;stroke:none;stroke-width:1px;stroke-linecap:butt;stroke-linejoin:miter;stroke-opacity:1" />
      <path
         sodipodi:nodetypes="cc"
         inkscape:connector-curvature="0"
         id="path3964"
         d="m 1263.4712,908.06911 c -0.3382,-1.50313 7.832,-3.91367 19.3839,-6.79587 0,0 0,0 0,0 5.4997,-1.41961 12.581,-3.45882 17.7502,-7.43237 2.5595,-1.8966 4.9028,-4.3203 6.8704,-7.16165 0.5134,-0.73458 1.001,-1.50006 1.4651,-2.29487 1.6944,-2.90199 3.0051,-6.07684 4.0682,-9.24054 0,0 0,-10e-6 0,-10e-6 3.6806,-10.90348 4.6525,-22.88923 5.3664,-30.36493 0.7618,-7.97643 1.4356,-12.9208 2.6423,-13.00092 1.2067,-0.0801 2.7819,4.67193 3.7549,12.91763 0.9366,7.93731 1.3139,20.35166 -2.4014,33.34846 0,0 0,0 0,0 -1.0834,3.76577 -2.6267,7.64911 -4.8066,11.37864 -0.5955,1.01888 -1.2306,2.01258 -1.9062,2.9784 -2.6558,3.77045 -5.9107,6.9201 -9.5139,9.3428 -7.5644,4.94482 -15.8218,6.54494 -22.0107,7.0957 0,0 0,0 0,0 -5.6862,0.54966 -12.182,0.44579 -14.9461,0.35207 -3.4866,-0.11822 -5.5466,-0.36745 -5.7165,-1.12254 z"
         style="fill:#ffffff;fill-rule:evenodd;stroke:none;stroke-width:1px;stroke-linecap:butt;stroke-linejoin:miter;stroke-opacity:1" />
      <path
         sodipodi:nodetypes="cc"
         inkscape:connector-curvature="0"
         id="path3972"
         d="m 1321.0164,831.85037 c 1.145,-0.64556 3.3086,0.68629 6.0389,3.0908 2.5378,2.23507 6.6007,6.33368 9.6427,11.55575 0,0 0,0 0,0 0.1957,0.33562 0.3872,0.67794 0.5739,1.02686 1.8206,3.40174 2.9128,6.91829 3.2962,10.29721 0.9118,8.6888 -2.8129,13.22295 -4.3994,12.92025 -1.9357,-0.36932 -2.3478,-5.4279 -4.3926,-11.08696 -0.8156,-2.34777 -1.8928,-4.69551 -3.3377,-7.42698 -0.1464,-0.27656 -0.2938,-0.5521 -0.4417,-0.82608 0,0 0,0 0,0 -2.7772,-5.13625 -4.9334,-8.16365 -6.6331,-12.54596 -1.4402,-3.71306 -1.5285,-6.33882 -0.3472,-7.00489 z"
         style="fill:#ffffff;fill-rule:evenodd;stroke:none;stroke-width:1px;stroke-linecap:butt;stroke-linejoin:miter;stroke-opacity:1" />
      <path
         sodipodi:nodetypes="cc"
         inkscape:connector-curvature="0"
         id="path3976"
         d="m 1337.6839,768.21076 c 1.745,-0.96118 10.4164,8.8882 14.8888,26.98016 1.728,7.04769 2.566,14.98293 2.0984,23.50993 -0.063,1.14326 -0.1477,2.2762 -0.2537,3.39762 0,0 0,0 0,0 -1.3616,13.94472 -5.8121,26.59531 -9.135,34.49318 -3.4846,8.2819 -6.3321,13.0344 -7.5985,12.63437 -1.2664,-0.40002 -0.7124,-5.97166 1.0223,-14.6572 1.5402,-7.71169 4.8338,-21.39903 5.7688,-33.34938 0,0 0,0 0,0 0.083,-1.01314 0.1526,-2.03493 0.2087,-3.06459 0.4191,-7.69092 0.01,-14.74399 -0.9685,-21.1866 -2.4785,-16.54843 -7.7763,-27.79631 -6.0313,-28.75749 z"
         style="fill:#ffffff;fill-rule:evenodd;stroke:none;stroke-width:1px;stroke-linecap:butt;stroke-linejoin:miter;stroke-opacity:1" />
      <path
         sodipodi:nodetypes="cc"
         inkscape:connector-curvature="0"
         id="path3984"
         d="m 1338.189,768.71584 c 0.9663,-0.86943 3.7952,0.36434 7.5945,3.15705 3.6421,2.67723 8.9375,7.38926 13.1016,13.79249 0,0 0,0 0,0 0.3001,0.46648 0.5933,0.94297 0.8788,1.42925 2.3724,4.04099 3.8782,8.19045 4.6234,12.13687 1.8941,10.28539 -1.3307,16.56311 -2.9648,16.45643 -1.981,-0.12933 -2.824,-6.50973 -5.7397,-14.10305 -1.1377,-3.0111 -2.6089,-6.11649 -4.5487,-9.43079 -0.2324,-0.39704 -0.4673,-0.78992 -0.7042,-1.17846 0,0 0,0 0,0 -3.3388,-5.54847 -7.237,-10.42436 -9.7094,-14.41704 -2.4912,-4.02308 -3.5416,-6.93397 -2.5315,-7.84275 z"
         style="fill:#ffffff;fill-rule:evenodd;stroke:none;stroke-width:1px;stroke-linecap:butt;stroke-linejoin:miter;stroke-opacity:1" />
      <path
         sodipodi:nodetypes="cccc"
         inkscape:connector-curvature="0"
         id="path3988"
         d="m 1323.5418,711.64222 c 0.8981,-1.55225 12.385,1.98502 25.6782,14.0155 6.2108,5.62729 12.4713,13.28476 16.8805,22.96526 0.6867,1.52073 1.322,3.0782 1.9037,4.67008 3.1906,8.73039 4.4022,17.46346 4.4229,25.30564 0.046,22.14006 -7.0104,36.09177 -8.9843,35.574 -0.987,-0.25888 -0.8848,-4.04169 -0.4777,-10.27717 0.3886,-5.95231 1.0961,-15.22056 0.3209,-24.94088 -0.5573,-7.01975 -1.9046,-14.69743 -4.6634,-22.22946 -0.5046,-1.37775 -1.0466,-2.72361 -1.6255,-4.03713 -3.6442,-8.3537 -8.7716,-15.4062 -13.7915,-21.0251 -10.8178,-12.11738 -20.5619,-18.46849 -19.6638,-20.02074 z"
         style="fill:#ffffff;fill-rule:evenodd;stroke:none;stroke-width:1px;stroke-linecap:butt;stroke-linejoin:miter;stroke-opacity:1" />
      <path
         sodipodi:nodetypes="cc"
         inkscape:connector-curvature="0"
         id="path3992"
         d="m 1084.6407,584.86807 c -0.5914,-0.75747 6.1505,-7.87288 20.4908,-16.76491 14.3403,-8.89204 36.7946,-19.43922 65.6281,-21.81539 25.3002,-2.04654 54.2722,2.54252 81.5772,17.01176 0.9038,0.47893 1.8009,0.96628 2.6913,1.46188 27.8477,15.50199 47.742,38.10177 59.6944,60.90797 12.7734,24.43277 15.8766,47.9755 16.0233,63.69924 0.1489,15.96184 -2.2362,24.89779 -3.1634,24.79899 -0.9272,-0.0988 -0.3252,-9.15895 -1.9365,-24.51234 -1.6113,-15.35339 -5.8348,-37.34653 -18.5699,-59.82815 -11.8969,-21.05622 -30.9016,-41.882 -56.9072,-56.32733 -0.8319,-0.46214 -1.6701,-0.91699 -2.5144,-1.36441 -25.4793,-13.50265 -52.5236,-18.23643 -76.3056,-17.01001 -26.9934,1.34799 -49.3384,10.40775 -63.655,17.55978 -14.6321,7.30966 -22.4617,12.94039 -23.0531,12.18292 z"
         style="fill:#ffffff;fill-rule:evenodd;stroke:none;stroke-width:1px;stroke-linecap:butt;stroke-linejoin:miter;stroke-opacity:1" />
      <path
         sodipodi:nodetypes="cc"
         inkscape:connector-curvature="0"
         id="path3996"
         d="m 1084.9462,584.99225 c -1.1736,-0.47102 -0.9566,-4.81443 1.4823,-11.361 2.4493,-6.57439 7.0855,-15.06978 14.6065,-23.11217 0,0 0,-10e-6 0,-10e-6 0.5993,-0.64036 1.2155,-1.2746 1.8485,-1.90166 8.3767,-8.29789 17.4897,-13.18167 24.7709,-15.57431 7.1982,-2.36532 11.9242,-2.15098 12.2918,-0.90799 0.3914,1.32334 -3.5049,3.59101 -9.2948,7.30356 -6.0168,3.85811 -13.2385,8.87316 -20.731,16.28639 -0.5613,0.55537 -1.1122,1.11252 -1.6528,1.67106 0,0 0,0 0,0 -6.8807,7.10335 -11.8869,14.04088 -15.7712,19.43855 -3.8005,5.28126 -6.3189,8.65176 -7.5502,8.15758 z"
         style="fill:#ffffff;fill-rule:evenodd;stroke:none;stroke-width:1px;stroke-linecap:butt;stroke-linejoin:miter;stroke-opacity:1" />
      <path
         sodipodi:nodetypes="cc"
         inkscape:connector-curvature="0"
         id="path4000"
         d="m 1137.8034,532.49225 c 0.214,0.94998 -2.3773,2.33557 -7.322,3.16603 -2.836,0.48674 -5.3162,0.70345 -9.0363,1.11321 -5.6495,0.63997 -13.2861,1.64542 -20.0802,4.35402 -4.8748,1.88053 -9.6617,4.69369 -14.2914,8.43071 -2.6366,2.12819 -5.0708,4.43453 -7.2892,6.80141 0,10e-6 0,10e-6 0,10e-6 -8.1819,8.72388 -14.2503,18.9897 -18.2426,25.65837 -4.1793,6.98103 -6.8869,11.26946 -8.024,10.83339 -1.1371,-0.43608 -0.5497,-5.52421 2.1908,-13.52724 2.6705,-7.79843 7.803,-19.12463 16.7658,-29.52171 0,0 0,0 0,0 2.4394,-2.82569 5.2147,-5.5516 8.325,-8.04537 5.4549,-4.37372 11.3592,-7.5692 17.4081,-9.55365 8.6382,-2.74632 16.9935,-2.9004 23.1078,-2.46977 3.3426,0.2274 6.893,0.68607 9.0682,0.98463 4.5044,0.59345 7.2535,1.03658 7.42,1.77596 z"
         style="fill:#ffffff;fill-rule:evenodd;stroke:none;stroke-width:1px;stroke-linecap:butt;stroke-linejoin:miter;stroke-opacity:1" />
      <path
         sodipodi:nodetypes="cc"
         inkscape:connector-curvature="0"
         id="path4022"
         d="m 1053.0485,594.94582 c -2.4914,-0.0399 -4.4094,-9.22178 -4.5949,-21.25192 0,-10e-6 0,-10e-6 0,-10e-6 0.039,-1.31966 0.1111,-2.68113 0.2254,-4.07131 0.3948,-4.80182 1.2273,-9.16401 2.454,-12.98398 0,0 0,0 0,0 0.8947,-2.78944 1.9812,-5.12916 3.2327,-6.99957 2.0663,-3.18029 4.7137,-4.36994 5.5805,-3.57535 0.658,0.60317 0.5722,2.97866 0.2237,5.81977 -0.2899,2.94082 -0.2493,2.79421 -0.5665,6.50809 0,0 0,0 0,0 -0.3126,3.74714 -0.6345,8.13228 -0.9471,11.87942 -0.1071,1.29171 -0.2176,2.55709 -0.3384,3.80765 0,0 0,0 0,10e-6 -0.5672,11.85141 -2.779,20.90708 -5.2694,20.8672 z"
         style="fill:#ffffff;fill-rule:evenodd;stroke:none;stroke-width:1px;stroke-linecap:butt;stroke-linejoin:miter;stroke-opacity:1" />
      <path
         sodipodi:nodetypes="cc"
         inkscape:connector-curvature="0"
         id="path4026"
         d="m 1060.2141,546.42081 c 0.5435,1.24895 -1.6406,3.40788 -4.6917,6.56656 -3.0489,3.15651 -6.9657,7.39873 -9.5775,12.88444 -0.073,0.14388 -0.1446,0.28865 -0.2157,0.43432 -2.7187,5.56937 -3.7594,11.54457 -4.5436,16.00984 -0.7906,4.50133 -1.3984,7.61414 -2.7572,7.85485 -1.276,0.22604 -3.2983,-2.47091 -4.3402,-7.67745 -1.0304,-5.14949 -0.9716,-12.73342 2.616,-20.46669 0.092,-0.19826 0.1857,-0.39536 0.2812,-0.59128 3.8526,-7.56584 9.8415,-12.11032 14.5971,-14.25001 4.8067,-2.16269 8.1246,-1.92962 8.6316,-0.76458 z"
         style="fill:#ffffff;fill-rule:evenodd;stroke:none;stroke-width:1px;stroke-linecap:butt;stroke-linejoin:miter;stroke-opacity:1" />
      <path
         sodipodi:nodetypes="cc"
         inkscape:connector-curvature="0"
         id="path4030"
         d="m 1039.2319,589.27796 c -0.227,1.9699 -5.2423,2.38013 -12.4426,1.83315 -3.2389,-0.22282 -7.4908,-0.67153 -10.9657,-0.41403 -0.8538,0.0554 -1.7188,0.15087 -2.5877,0.28994 -2.7077,0.43338 -5.1749,1.24367 -7.327,2.31573 0,0 0,0 0,0 -3.6396,1.72954 -7.11251,4.57378 -9.38836,6.2457 -2.46407,1.8102 -4.23073,2.83168 -5.14575,2.22952 -0.89291,-0.58762 -0.78783,-2.70609 0.6132,-5.79894 1.36218,-3.00709 4.19413,-7.23894 9.08241,-10.68454 0,0 0,0 0,0 2.9786,-2.02863 6.5742,-3.53423 10.5762,-4.18088 1.2813,-0.20704 2.5562,-0.31794 3.8119,-0.34012 5.1219,-0.0521 9.6385,1.09551 12.9994,2.25197 6.7666,2.27184 10.9364,4.84321 10.774,6.2525 z"
         style="fill:#ffffff;fill-rule:evenodd;stroke:none;stroke-width:1px;stroke-linecap:butt;stroke-linejoin:miter;stroke-opacity:1" />
      <path
         sodipodi:nodetypes="cc"
         inkscape:connector-curvature="0"
         id="path4042"
         d="m 1032.4462,609.63511 c -1.0104,0.86747 -3.274,-0.11502 -6.3724,-1.39864 -3.2277,-1.33718 -7.1429,-2.88693 -12.0174,-3.75465 0,0 0,0 0,0 -0.5161,-0.0976 -1.0394,-0.18703 -1.5712,-0.26837 -5.1735,-0.79139 -10.3694,-0.67127 -14.21959,-0.76689 -3.90642,-0.097 -6.63996,-0.4464 -7.06937,-1.75789 -0.41286,-1.26096 1.53855,-3.39366 5.59731,-5.185 4.02905,-1.77824 10.15375,-3.14989 17.13995,-2.15733 0.7004,0.0995 1.3928,0.22066 2.0759,0.36269 0,0 0,0 0,0 6.6376,1.43241 11.4894,4.91565 14.2145,8.17022 2.7352,3.2665 3.1679,5.94399 2.2223,6.75586 z"
         style="fill:#ffffff;fill-rule:evenodd;stroke:none;stroke-width:1px;stroke-linecap:butt;stroke-linejoin:miter;stroke-opacity:1" />
      <path
         sodipodi:nodetypes="cc"
         inkscape:connector-curvature="0"
         id="path3933"
         d="m 1032.4916,608.85919 c 0.4929,0.88005 -4.1603,4.34383 -11.7508,10.44586 -7.2196,5.80396 -18.4654,15.21897 -27.09878,27.78419 -6.56439,9.47136 -11.75476,21.2333 -13.98932,34.54551 -0.20164,1.20126 -0.37663,2.40094 -0.52536,3.59785 -1.88637,14.82036 -0.0881,29.82511 2.06598,42.1996 2.17947,12.41812 5.73893,26.72916 7.27038,33.52415 1.84483,8.18539 2.60409,13.01967 1.72776,13.31533 -1.75266,0.59133 -10.67842,-16.71823 -17.47803,-45.07519 -3.07539,-12.75224 -5.45482,-28.60292 -3.50427,-45.17624 0.16203,-1.34545 0.35617,-2.6933 0.58294,-4.04209 2.51657,-14.96813 8.67953,-28.01431 16.50541,-38.25138 10.38687,-13.47672 22.92869,-22.15041 31.36239,-26.96042 8.7537,-4.99251 14.3388,-6.78722 14.8317,-5.90717 z"
         style="fill:#ffffff;fill-rule:evenodd;stroke:none;stroke-width:1px;stroke-linecap:butt;stroke-linejoin:miter;stroke-opacity:1" />
      <path
         sodipodi:nodetypes="csc"
         inkscape:connector-curvature="0"
         id="path3958"
         d="m 1211.5227,816.60465 c 0.7961,0.0916 1.3447,1.57867 2.105,3.90304 0.5362,1.63951 2.1482,6.46071 2.6613,10.68812 0.3401,2.37737 0.4498,5.4024 -0.4173,8.76492 -0.8407,3.03923 -2.7644,5.98976 -5.8584,8.08142 -2.6337,1.78366 -5.6906,3.42963 -9.1287,4.60332 -1.8209,0.62161 -3.6858,1.08908 -5.5849,1.38481 -4.6766,0.67164 -9.1318,0.07 -12.953,-1.29312 -4.3458,-1.58513 -7.7928,-3.92338 -10.2843,-5.95736 0,0 0,0 0,0 -5.7757,-4.68188 -8.3534,-8.31017 -7.56,-9.46087 0.9118,-1.32242 5.0412,0.57093 11.3391,3.40365 0,0 0,0 0,0 2.6276,1.16843 5.9451,2.63092 9.117,3.30734 2.7304,0.60303 5.7744,0.76688 8.7701,0.20792 1.2794,-0.21424 2.5746,-0.56195 3.8966,-1.02621 2.4799,-0.87084 4.9422,-2.11462 7.2539,-3.41214 0.9879,-0.45185 1.8503,-1.53113 2.368,-2.65543 0.7218,-1.51655 0.9481,-3.67016 1.1434,-5.69133 0.3138,-3.98506 0.2155,-8.0228 0.7859,-10.76656 0.58,-2.7899 1.5532,-4.17277 2.3463,-4.08152 z"
         style="fill:#ffffff;fill-rule:evenodd;stroke:none;stroke-width:1px;stroke-linecap:butt;stroke-linejoin:miter;stroke-opacity:1" />
      <path
         sodipodi:nodetypes="cc"
         inkscape:connector-curvature="0"
         id="path3966"
         d="m 1210.8084,836.90051 c 1.1561,-1.47468 6.3296,1.18359 12.8741,1.37838 2.9125,0.14161 6.1544,-0.28797 9.5673,-1.4323 0.2207,-0.0702 0.4415,-0.14336 0.6623,-0.21941 5.6206,-1.93571 10.7418,-5.6687 14.4419,-8.19845 3.8358,-2.6225 6.5448,-4.25448 7.6636,-3.37521 1.085,0.85274 0.3521,4.07881 -2.5684,8.35875 -2.8802,4.22088 -8.2053,9.60986 -16.1368,12.59204 -0.3009,0.11316 -0.6031,0.22183 -0.9064,0.32601 -5.0045,1.65696 -9.9936,1.65743 -14.2291,0.54615 -9.808,-2.71557 -12.1197,-9.01783 -11.3685,-9.97596 z"
         style="fill:#ffffff;fill-rule:evenodd;stroke:none;stroke-width:1px;stroke-linecap:butt;stroke-linejoin:miter;stroke-opacity:1" />
      <path
         sodipodi:nodetypes="cc"
         inkscape:connector-curvature="0"
         id="path3970"
         d="m 1176.7105,849.26794 c 1.0526,-1.07951 7.5224,3.98436 18.4271,7.55625 5.1708,1.66927 11.2763,3.03154 17.7152,3.01039 0.3009,-9.9e-4 0.6008,-0.005 0.8997,-0.012 6.3365,-0.19192 11.7133,-1.59492 15.8643,-4.19434 4.3108,-2.5501 7.1801,-6.53098 8.9423,-9.20929 1.8364,-2.79128 2.8623,-4.63471 3.5902,-4.46883 0.7279,0.16588 1.1074,2.37605 0.1851,6.07388 -0.9222,3.69783 -3.28,8.97579 -8.6847,13.3055 -5.1376,3.97095 -12.0095,6.3979 -19.7072,6.53762 -0.3585,0.008 -0.7179,0.0127 -1.078,0.0127 -7.751,-6e-4 -14.7292,-1.96675 -20.2962,-4.51819 -12.2014,-5.53629 -16.7458,-13.18298 -15.8578,-14.09365 z"
         style="opacity:1;fill:#ffffff;fill-rule:evenodd;stroke:none;stroke-width:1.07053px;stroke-linecap:butt;stroke-linejoin:miter;stroke-opacity:1" />
      <path
         sodipodi:nodetypes="cc"
         inkscape:connector-curvature="0"
         id="path4015"
         d="m 1237.1737,804.57625 c -1.0398,-1.99934 5.4899,-8.49328 17.7464,-11.97215 0,0 0,0 0,0 2.7901,-0.78486 5.8454,-1.31469 9.0785,-1.44998 2.1499,-0.09 4.255,-1.5e-4 6.2908,0.2538 4.6705,0.61587 8.7718,2.02357 11.8437,3.29843 6.2692,2.57346 10.2772,4.92915 10.094,6.33437 -0.2333,1.78963 -5.04,2.33752 -12.159,1.39014 -2.9879,-0.37686 -7.3141,-1.09429 -10.7112,-1.26142 -1.5903,-0.0924 -3.2317,-0.10334 -4.9322,-0.029 -2.5501,0.11144 -5.0309,0.4058 -7.3763,0.79279 0,0 0,0 0,0 -10.5719,1.72898 -18.8349,4.64239 -19.8747,2.64305 z"
         style="fill:#ffffff;fill-rule:evenodd;stroke:none;stroke-width:1px;stroke-linecap:butt;stroke-linejoin:miter;stroke-opacity:1" />
      <path
         sodipodi:nodetypes="cc"
         inkscape:connector-curvature="0"
         id="path4019"
         d="m 1227.5773,815.68793 c -0.1492,-1.37191 3.1634,-3.05823 8.8412,-4.44421 5.5295,-1.34975 13.9316,-2.4749 23.0399,-1.23691 0.2985,0.0406 0.5962,0.0834 0.8929,0.12862 5.9087,0.91261 11.1106,2.88288 15.3486,5.54042 9.2,5.82798 11.0693,12.74424 9.9612,13.64914 -1.4295,1.16743 -6.2859,-2.97736 -13.9574,-5.97757 -3.719,-1.48309 -7.8774,-2.56748 -12.8719,-3.33167 -0.2533,-0.0394 -0.5076,-0.0777 -0.7631,-0.11495 -7.8771,-1.14825 -15.4182,-1.1566 -21.0558,-1.5908 -5.6604,-0.43595 -9.2827,-1.21618 -9.4356,-2.62207 z"
         style="fill:#ffffff;fill-rule:evenodd;stroke:none;stroke-width:1px;stroke-linecap:butt;stroke-linejoin:miter;stroke-opacity:1" />
      <path
         sodipodi:nodetypes="cc"
         inkscape:connector-curvature="0"
         id="path4023"
         d="m 1227.0722,823.26408 c 0.3283,-1.27924 3.334,-1.75592 7.8726,-1.89506 4.1417,-0.12697 11.4236,-0.0203 18.4685,1.54619 0,0 0,0 0,0 0.4688,0.10393 0.9402,0.21578 1.4136,0.33593 4.5018,1.1427 8.52,2.86963 11.9293,5.0287 8.6484,5.5315 11.0249,12.03118 9.8135,13.16698 -1.4384,1.34863 -6.5713,-2.23967 -14.0056,-5.22107 -3.0513,-1.24407 -6.3177,-2.28126 -10.21,-3.27969 -0.4043,-0.10371 -0.808,-0.20511 -1.2101,-0.3044 0,0 0,0 0,0 -7.342,-1.80587 -11.9186,-2.45515 -17.3448,-4.46731 -4.569,-1.69424 -7.0627,-3.60238 -6.727,-4.91027 z"
         style="fill:#ffffff;fill-rule:evenodd;stroke:none;stroke-width:1px;stroke-linecap:butt;stroke-linejoin:miter;stroke-opacity:1" />
      <path
         sodipodi:nodetypes="cc"
         inkscape:connector-curvature="0"
         id="path4031"
         d="m 1177.5747,814.1727 c -0.299,0.90262 -1.8896,1.21236 -4.1577,1.64771 -2.6685,0.5122 -5.004,0.99244 -9.0196,2.23605 -3.5456,1.14406 -7.2231,2.68359 -11.2978,4.84556 -0.504,0.26746 -1.0025,0.53827 -1.495,0.81138 0,0 0,0 0,0 -4.5231,2.55476 -7.903,4.87978 -10.8876,7.40451 -2.2948,2.10887 -4.101,3.74492 -5.2985,5.05757 -1.1672,1.27947 -1.9664,2.30965 -2.7955,2.24089 -0.7914,-0.0656 -1.5934,-1.30291 -1.487,-3.747 0.1076,-2.47012 1.1787,-5.72047 3.549,-8.89599 2.7225,-3.89568 6.7282,-7.65828 11.9418,-10.70748 0,0 0,-1e-5 0,-1e-5 0.5769,-0.34245 1.1675,-0.67555 1.7716,-0.99783 4.843,-2.58369 9.7341,-4.03976 14.2481,-4.55233 4.7905,-0.5931 8.7886,0.10964 11.4697,1.25555 2.6625,1.13797 3.7421,2.54535 3.4585,3.40142 z"
         style="fill:#ffffff;fill-rule:evenodd;stroke:none;stroke-width:1px;stroke-linecap:butt;stroke-linejoin:miter;stroke-opacity:1" />
      <path
         sodipodi:nodetypes="ccc"
         inkscape:connector-curvature="0"
         id="path4037"
         d="m 1309.2319,733.20654 c 0.531,1.40359 -13.0371,5.89605 -27.4743,19.92773 0,0 0,0 0,0 -2.7791,2.67497 -5.0544,5.22141 -8.1979,8.5214 -3.553,2.87599 -7.6313,5.92683 -12.2375,8.72355 -10.8709,-7.69837 -22.5258,-18.14188 -31.0772,-31.68384 -0.27,-0.49368 -0.5351,-0.99097 -0.7951,-1.49179 -5.5631,-10.71439 -8.3288,-22.06971 -8.971,-32.78953 -0.7563,-12.98284 1.2934,-25.06529 3.6858,-34.59401 5.3849,-21.52246 11.8378,-33.87278 13.2815,-33.39923 1.4437,0.47354 -2.4534,13.90094 -5.841,34.93307 -1.4828,9.25959 -2.7788,20.76614 -1.6705,32.34172 0.8956,9.52243 3.5079,19.53902 8.3843,28.89474 0.2282,0.43798 0.4606,0.87275 0.6969,1.30424 5.3848,11.91277 13.8937,21.61993 22.4115,29.28211 2.1663,-2.24857 4.2485,-4.94292 6.2155,-7.51317 3.1926,-2.95999 5.9306,-5.57279 9.1375,-8.17811 0,0 0,-10e-6 0,-10e-6 17.4704,-14.0823 31.9205,-15.68246 32.4515,-14.27887 z"
         style="fill:#ffffff;fill-rule:evenodd;stroke:none;stroke-width:1px;stroke-linecap:butt;stroke-linejoin:miter;stroke-opacity:1" />
      <path
         sodipodi:nodetypes="cc"
         inkscape:connector-curvature="0"
         id="path4041"
         d="m 1233.1605,646.42082 c 0.2349,-0.99458 4.3404,-1.09869 11.2022,0.0839 6.6837,1.15186 16.6613,3.73206 27.1534,8.89803 7.4468,3.65076 15.4364,8.89356 22.1768,16.27148 1.1328,1.23996 2.2097,2.51782 3.2282,3.83277 6.8045,8.8839 10.1532,18.8523 11.103,27.79786 1.0325,10.09791 -0.6478,18.76983 -2.2906,24.16644 -1.6982,5.57876 -3.4667,8.46572 -4.3587,8.23527 -0.892,-0.23045 -0.8199,-3.5528 -0.634,-9.08214 0.176,-5.23446 0.4559,-13.58207 -1.264,-22.04855 -1.4962,-7.51117 -4.7412,-15.72739 -10.4365,-22.95433 -0.8541,-1.09858 -1.7604,-2.17317 -2.7179,-3.22516 -5.6638,-6.22271 -12.6253,-11.10208 -19.1295,-14.92335 -9.0579,-5.29636 -18.5276,-9.16344 -24.3849,-11.65506 -6.215,-2.6438 -9.8824,-4.40256 -9.6475,-5.39714 z"
         style="fill:#ffffff;fill-rule:evenodd;stroke:none;stroke-width:1px;stroke-linecap:butt;stroke-linejoin:miter;stroke-opacity:1" />
      <path
         sodipodi:nodetypes="ccc"
         inkscape:connector-curvature="0"
         id="path4049"
         d="m 1106.7319,659.27796 c 0.9838,1.19672 -12.4281,11.88651 -27.1413,32.64797 -6.0898,8.61596 -12.5046,19.74616 -15.3638,32.29294 -2.5075,10.72747 -2.3178,22.74287 0.9028,34.71504 0.05,0.18694 0.1012,0.37356 0.1528,0.55988 3.4558,15.51559 11.502,29.38509 19.5419,40.82497 20.1114,-4.58775 35.1575,-6.04727 47.9961,-5.34284 11.8868,0.6522 18.7058,2.95235 18.5544,3.9449 -0.1513,0.99255 -7.1819,0.53634 -19.315,1.20039 -13.759,0.75303 -27.8057,2.71392 -49.8489,7.40167 -10.0375,-11.94427 -20.6694,-27.29503 -26.562,-45.34711 -0.059,-0.21113 -0.1172,-0.42264 -0.1747,-0.63452 -3.6795,-13.57994 -3.6477,-27.30066 -0.4532,-39.60175 3.7809,-14.267 11.2897,-26.01226 18.4536,-34.69805 17.1329,-20.81647 32.2735,-29.16021 33.2573,-27.96349 z"
         style="fill:#ffffff;fill-rule:evenodd;stroke:none;stroke-width:1px;stroke-linecap:butt;stroke-linejoin:miter;stroke-opacity:1" />
      <path
         sodipodi:nodetypes="cc"
         inkscape:connector-curvature="0"
         id="path4053"
         d="m 1087.0891,677.49225 c 0.7427,-1.67572 15.8723,1.64705 33.8326,15.64936 8.233,6.42653 16.623,15.32461 22.8624,26.83024 0.6639,1.23199 1.2997,2.48709 1.9066,3.76447 5.1357,10.80881 7.5817,21.88377 8.3779,31.84234 2.0816,26.16402 -4.6543,43.34788 -6.6224,42.98502 -0.9841,-0.18142 -1.0025,-4.63294 -0.91,-12.08013 0.089,-7.14086 0.2471,-18.21142 -1.4675,-29.90008 -1.3263,-9.05727 -3.8437,-18.99549 -8.4,-28.55395 -0.54,-1.13285 -1.1014,-2.24523 -1.6841,-3.33685 -5.3849,-10.16091 -12.6031,-18.50969 -19.6229,-24.97168 -15.4005,-14.18982 -29.0153,-20.55302 -28.2726,-22.22874 z"
         style="fill:#ffffff;fill-rule:evenodd;stroke:none;stroke-width:1px;stroke-linecap:butt;stroke-linejoin:miter;stroke-opacity:1" />
      <path
         style="fill:#ffffff;fill-rule:evenodd;stroke:none;stroke-width:1px;stroke-linecap:butt;stroke-linejoin:miter;stroke-opacity:1"
         d="m 1183.3298,819.50922 c 0.4545,1.33915 -2.5006,3.57472 -7.4487,6.35792 -4.9281,2.77198 -11.7618,5.96093 -18.4193,10.32511 -0.2159,0.14156 -0.4303,0.28359 -0.6433,0.42615 -4.2059,2.7999 -7.5187,5.53736 -10.2648,8.45094 -5.6898,5.95654 -8.3443,11.76322 -10.1329,11.30783 -1.3864,-0.35299 -2.6094,-7.41223 3.2732,-16.57742 2.7213,-4.19735 6.6064,-8.17825 11.5786,-11.49837 0.25,-0.16614 0.5017,-0.33058 0.7553,-0.4933 7.7358,-4.96496 15.8283,-7.48942 21.4111,-8.59838 5.7325,-1.13871 9.4473,-1.00727 9.8908,0.29952 z"
         id="path4067"
         inkscape:connector-curvature="0"
         sodipodi:nodetypes="cc" />
      <path
         style="fill:#ffffff;fill-rule:evenodd;stroke:none;stroke-width:1px;stroke-linecap:butt;stroke-linejoin:miter;stroke-opacity:1"
         d="m 1184.288,826.72263 c 0.8339,1.03396 -0.5936,3.74312 -4.0312,7.06632 -3.3909,3.27807 -8.6949,6.79547 -13.6945,10.76445 0,0 0,0 0,0 -0.4924,0.39074 -0.9848,0.78964 -1.4748,1.19656 -2.7766,2.3058 -5.0755,4.53638 -7.0525,6.82913 -5.5001,6.27974 -8.4973,12.33444 -10.4521,11.77866 -1.5597,-0.44347 -2.6098,-7.7635 3.0282,-17.09069 2.0097,-3.27603 4.7171,-6.42476 8.0876,-9.2184 0.5983,-0.49587 1.2033,-0.96879 1.8123,-1.41922 0,0 0,0 0,0 5.723,-4.2288 12.3731,-7.1108 16.0349,-8.54565 4.0833,-1.60004 6.9298,-2.36835 7.7421,-1.36116 z"
         id="path4071"
         inkscape:connector-curvature="0"
         sodipodi:nodetypes="cc" />
      <path
         sodipodi:nodetypes="cssc"
         inkscape:connector-curvature="0"
         id="path3937"
         d="m 1181.0177,797.49225 c 0,0 30.8441,-15.91697 49.2857,-11.42857 11.5979,2.82276 4.393,26.84238 -15.7143,33.57143 -20.1828,6.75431 -45.1784,-11.7271 -33.5714,-22.14286 z"
         style="opacity:1;fill:#ffffff;fill-rule:evenodd;stroke:none;stroke-width:1px;stroke-linecap:butt;stroke-linejoin:miter;stroke-opacity:1" />
    </g>
  </g>
</svg>
